# Blender 5.0.1
# www.blender.org
mtllib 31Untitled.mtl
o wow3
v -5.250550 14.641401 11.828899
v -5.205770 14.564301 11.815799
v -5.273840 14.636101 11.820299
v -5.209430 14.559901 11.827799
v -5.252330 14.639301 11.834799
v -5.153240 14.379001 11.795199
v -5.148750 14.382601 11.781399
v -5.112300 14.197401 11.785199
v -5.259560 14.554501 11.795899
v -5.263210 14.550101 11.807899
v -5.275620 14.633901 11.826199
v -5.209430 14.559901 11.827799
v -5.252330 14.639301 11.834799
v -5.153240 14.379001 11.795199
v -5.227630 14.373601 11.767799
v -5.112300 14.197401 11.785199
v -5.223130 14.377101 11.753999
v -5.200820 14.191901 11.751799
v -5.076400 13.999901 11.801099
v -5.106600 14.198301 11.769499
v -5.076400 13.999901 11.801099
v -5.195120 14.192701 11.736099
v -5.069590 13.997401 11.785099
v -5.062340 13.796000 11.835999
v -5.178370 13.991801 11.761199
v -5.062340 13.796000 11.835999
v -5.175420 13.785101 11.790399
v -5.171560 13.989301 11.745199
v -5.167720 13.779401 11.774699
v -5.175420 13.785101 11.790399
v -5.054640 13.790301 11.820299
v -5.253900 14.641601 11.836199
v -5.222760 14.558701 11.819399
v -5.278560 14.639801 11.830400
v -5.255300 14.639801 11.842299
v -5.225620 14.554901 11.831800
v -5.217080 14.371801 11.797899
v -5.213500 14.374901 11.783599
v -5.214930 14.188901 11.787499
v -5.279320 14.557001 11.805899
v -5.282180 14.553201 11.818299
v -5.279950 14.637901 11.836399
v -5.225620 14.554901 11.831800
v -5.255300 14.639801 11.842299
v -5.217080 14.371801 11.797899
v -5.294450 14.374101 11.779299
v -5.214930 14.188901 11.787499
v -5.290860 14.377201 11.764899
v -5.307030 14.191601 11.764599
v -5.221380 13.990001 11.804299
v -5.328000 13.991601 11.776499
v -5.303020 14.191901 11.748299
v -5.323730 13.988501 11.759899
v -5.217100 13.986901 11.787699
v -5.210930 14.189201 11.771299
v -5.221380 13.990001 11.804299
v -5.323730 13.988501 11.759899
v -5.328000 13.991601 11.776499
v -5.253780 16.781502 12.440499
v -5.275620 16.781502 12.418699
v -5.264700 16.781502 12.444999
v -5.249260 16.781502 12.429599
v -5.280140 16.781502 12.429599
v -5.275620 16.781502 12.440499
v -5.264700 16.781502 12.414199
v -5.253780 16.781502 12.418699
v -5.301800 16.670799 12.466699
v -5.319150 16.694099 12.429599
v -5.317170 16.670799 12.429599
v -5.303200 16.694099 12.391099
v -5.264700 16.694099 12.375199
v -5.227600 16.670799 12.392499
v -5.264700 16.670799 12.377099
v -5.226200 16.694099 12.391099
v -5.212230 16.670799 12.429599
v -5.303200 16.694099 12.468099
v -5.264700 16.670799 12.482099
v -5.264700 16.694099 12.484099
v -5.264700 16.699902 12.454399
v -5.210250 16.694099 12.429599
v -5.227600 16.670799 12.466699
v -5.282200 16.699902 12.447099
v -5.289450 16.699902 12.429599
v -5.283410 16.720901 12.448299
v -5.264700 16.720901 12.456100
v -5.291160 16.720901 12.429599
v -5.282200 16.699902 12.412099
v -5.295850 16.752300 12.460799
v -5.264700 16.752300 12.473699
v -5.264700 16.781502 12.444999
v -5.275620 16.781502 12.440499
v -5.280140 16.781502 12.429599
v -5.283410 16.720901 12.410899
v -5.308760 16.752300 12.429599
v -5.295850 16.752300 12.398499
v -5.275620 16.781502 12.418699
v -5.264700 16.781502 12.414199
v -5.264700 16.752300 12.385499
v -5.264700 16.699902 12.404899
v -5.264700 16.720901 12.403099
v -5.247200 16.699902 12.412099
v -5.233550 16.752300 12.398499
v -5.253780 16.781502 12.418699
v -5.249260 16.781502 12.429599
v -5.239950 16.699902 12.429599
v -5.245990 16.720901 12.410899
v -5.238240 16.720901 12.429599
v -5.220640 16.752300 12.429599
v -5.253780 16.781502 12.440499
v -5.233550 16.752300 12.460799
v -5.264700 16.752300 12.473699
v -5.264700 16.781502 12.444999
v -5.245990 16.720901 12.448299
v -5.264700 16.720901 12.456100
v -5.247200 16.699902 12.447099
v -5.264700 16.699902 12.454399
v -5.226200 16.694099 12.468099
v -5.264700 16.694099 12.484099
v -5.355350 16.519302 12.520299
v -5.264700 16.583401 12.538699
v -5.341840 16.583401 12.506699
v -5.264700 16.519302 12.557799
v -5.264700 16.619499 12.470299
v -5.373790 16.583401 12.429599
v -5.392900 16.519302 12.429599
v -5.293500 16.619499 12.458399
v -5.300080 16.633499 12.464999
v -5.264700 16.633499 12.479599
v -5.305420 16.619499 12.429599
v -5.341840 16.583401 12.352499
v -5.355350 16.519302 12.338999
v -5.264700 16.647499 12.464199
v -5.264700 16.519302 12.301399
v -5.289180 16.647499 12.454099
v -5.264700 16.583401 12.320499
v -5.174040 16.519302 12.338999
v -5.299310 16.647499 12.429599
v -5.187560 16.583401 12.352499
v -5.155610 16.583401 12.429599
v -5.136490 16.519302 12.429599
v -5.174040 16.519302 12.520299
v -5.187560 16.583401 12.506699
v -5.264700 16.583401 12.538699
v -5.264700 16.519302 12.557799
v -5.235900 16.619499 12.458399
v -5.264700 16.619499 12.470299
v -5.264700 16.633499 12.479599
v -5.223970 16.619499 12.429599
v -5.229320 16.633499 12.464999
v -5.235900 16.619499 12.400799
v -5.214670 16.633499 12.429599
v -5.240220 16.647499 12.454099
v -5.264700 16.647499 12.464199
v -5.264700 16.670799 12.482099
v -5.229320 16.633499 12.394199
v -5.264700 16.619499 12.388899
v -5.230080 16.647499 12.429599
v -5.240220 16.647499 12.405099
v -5.264700 16.647499 12.395000
v -5.264700 16.633499 12.379599
v -5.293500 16.619499 12.400799
v -5.300080 16.633499 12.394199
v -5.314730 16.633499 12.429599
v -5.289180 16.647499 12.405099
v -5.301800 16.670799 12.392499
v -5.126590 16.656502 12.567699
v -5.051050 16.538799 12.683999
v -5.034810 16.558701 12.659499
v -5.496450 16.500999 12.295799
v -5.264700 16.554302 12.429599
v -5.398500 16.500999 12.197799
v -5.692930 16.349400 12.182399
v -5.532310 16.500999 12.429599
v -5.759170 16.349400 12.429599
v -5.910760 16.122601 12.429599
v -5.824200 16.122602 12.752599
v -5.496450 16.500999 12.563399
v -5.692930 16.349400 12.676799
v -5.587720 16.122602 12.989100
v -5.398500 16.500999 12.661399
v -5.264700 16.500999 12.697199
v -5.130890 16.500999 12.661399
v -5.264690 16.349401 12.924099
v -5.511930 16.349401 12.857799
v -5.010350 16.538799 12.643299
v -5.126590 16.656502 12.567699
v -5.034810 16.558701 12.659499
v -5.300080 16.633499 12.394199
v -5.264700 16.647499 12.395000
v -5.264700 16.633499 12.379599
v -5.614340 15.785001 13.035199
v -5.264680 15.785001 13.128899
v -5.870300 15.785001 12.779299
v -5.264690 16.122602 13.075699
v -4.915040 15.785001 13.035199
v -5.963980 15.785001 12.429599
v -4.941660 16.122602 12.989100
v -4.659070 15.785001 12.779299
v -5.824200 16.122601 12.106599
v -5.870300 15.785001 12.079999
v -4.705180 16.122602 12.752599
v -5.587720 16.122601 11.870099
v -5.614330 15.785001 11.823999
v -5.264680 15.785001 11.730299
v -4.618620 16.122601 12.429599
v -4.565380 15.785001 12.429599
v -4.836460 16.349400 12.676799
v -4.705180 16.122601 12.106599
v -4.659070 15.785001 12.079999
v -4.770210 16.349400 12.429599
v -5.017450 16.349401 12.857799
v -5.032940 16.500999 12.563399
v -4.997090 16.500999 12.429599
v -4.836460 16.349400 12.182399
v -5.032940 16.500999 12.295799
v -5.017450 16.349400 12.001399
v -4.941660 16.122601 11.870099
v -4.915030 15.785001 11.823999
v -5.130890 16.500999 12.197799
v -5.264690 16.349400 11.935099
v -5.264690 16.122601 11.783499
v -5.511930 16.349400 12.001399
v -5.264700 16.500999 12.161999
v -5.935680 14.949701 12.286999
v -5.949540 15.104901 12.298899
v -5.930110 14.988601 12.230899
v -5.890070 14.988601 12.230899
v -5.893970 14.836301 12.182199
v -5.905860 14.949701 12.286999
v -5.837620 14.836301 12.182199
v -5.890070 14.988601 12.230899
v -5.822130 14.876401 12.132299
v -5.878490 14.876401 12.132299
v -5.822130 14.876401 12.132299
v -5.817380 14.765401 12.104199
v -5.761030 14.765401 12.104199
v -5.763410 14.806401 12.058899
v -5.819770 14.806401 12.058899
v -5.763410 14.806401 12.058899
v -5.674390 14.719401 12.039199
v -5.724520 14.715401 12.030599
v -5.666530 14.758901 11.997099
v -5.557800 14.695201 11.963699
v -5.535720 14.727701 11.920099
v -5.412700 14.673001 11.919599
v -5.394240 14.707701 11.876099
v -5.264670 14.660801 11.910699
v -5.264670 14.699001 11.867199
v -5.135100 14.707701 11.876099
v -5.116630 14.673001 11.919599
v -4.993620 14.727701 11.920099
v -4.971540 14.695201 11.963699
v -4.862810 14.758901 11.997099
v -4.854940 14.719401 12.039199
v -4.765920 14.806501 12.058899
v -4.768310 14.765401 12.104199
v -4.707210 14.876401 12.132299
v -4.691720 14.836301 12.182199
v -4.639280 14.988601 12.230899
v -4.804810 14.715401 12.030599
v -4.711950 14.765401 12.104199
v -4.934880 14.687401 11.947299
v -4.971540 14.695201 11.963699
v -4.709570 14.806501 12.058899
v -5.099620 14.667001 11.892599
v -5.116630 14.673001 11.919599
v -4.956960 14.719901 11.903599
v -5.118080 14.701701 11.849099
v -4.811320 14.754001 11.986699
v -5.264670 14.658101 11.883899
v -5.264670 14.660801 11.910699
v -5.264670 14.693701 11.837499
v -5.412700 14.673001 11.919599
v -5.411260 14.701701 11.849099
v -5.429720 14.667001 11.892599
v -5.557800 14.695201 11.963699
v -5.572380 14.719901 11.903599
v -5.594460 14.687401 11.947299
v -5.718020 14.754001 11.986699
v -5.666530 14.758901 11.997099
v -5.572380 14.719901 11.903599
v -5.535720 14.727701 11.920099
v -5.411260 14.701701 11.849099
v -5.394240 14.707701 11.876099
v -5.264670 14.693701 11.837499
v -5.264670 14.699001 11.867199
v -5.135100 14.707701 11.876099
v -5.118080 14.701701 11.849099
v -4.993620 14.727701 11.920099
v -4.956960 14.719901 11.903599
v -4.862810 14.758901 11.997099
v -4.765920 14.806501 12.058899
v -4.707210 14.876401 12.132299
v -4.650860 14.876401 12.132299
v -4.639280 14.988601 12.230899
v -4.599240 14.988601 12.230899
v -4.611200 15.104901 12.298899
v -4.635370 14.836301 12.182199
v -4.593660 14.949800 12.286999
v -4.623480 14.949800 12.286999
v -4.602460 15.080301 12.366899
v -4.611200 15.104901 12.298899
v -4.571070 15.080301 12.366899
v -4.579810 15.104901 12.298899
v -4.601680 15.235101 12.344799
v -4.598680 15.219301 12.420199
v -4.601680 15.235101 12.344799
v -4.597730 15.446001 12.461999
v -4.597730 15.454801 12.380599
v -4.607760 15.741801 12.396299
v -4.607760 15.741801 12.485099
v -4.564560 15.219301 12.420199
v -4.565790 15.446001 12.461999
v -4.577310 15.741801 12.485099
v -4.577310 15.741801 12.396299
v -4.567570 15.235101 12.344799
v -4.597730 15.454801 12.380599
v -4.565790 15.454801 12.380599
v -4.607760 15.741801 12.396299
v -5.280840 14.613001 11.833899
v -5.297420 14.637501 11.820399
v -5.271240 14.635201 11.813299
v -5.300940 14.671000 11.822099
v -5.263910 14.667801 11.811999
v -5.238090 14.649601 11.836299
v -5.305350 14.627001 11.844699
v -5.312150 14.656201 11.856399
v -5.286330 14.638101 11.880699
v -5.252980 14.622401 11.830400
v -5.249300 14.634801 11.870599
v -5.260910 14.611901 11.854699
v -5.287090 14.614201 11.861799
v -5.279000 14.670601 11.879399
v -5.312150 14.656201 11.856399
v -5.252820 14.668301 11.872299
v -5.297260 14.683401 11.862199
v -5.300940 14.671000 11.822099
v -5.269400 14.692801 11.858799
v -5.244890 14.678801 11.847999
v -5.238090 14.649601 11.836299
v -5.263910 14.667801 11.811999
v -5.289330 14.693901 11.837999
v -5.263150 14.691601 11.830799
v -6.069440 15.958101 12.429599
v -6.004880 15.871601 12.856999
v -5.961620 15.958101 12.831999
v -5.667060 15.785101 13.126499
v -5.961620 15.785101 12.831999
v -6.069430 15.785101 12.429599
v -5.692040 15.871601 13.169799
v -5.264680 15.785101 13.234399
v -6.119390 15.871601 12.429599
v -5.961620 15.785101 12.027199
v -5.667060 15.958101 13.126499
v -6.004880 15.871601 12.002299
v -5.667060 15.785101 11.732699
v -5.961620 15.958101 12.027199
v -5.692040 15.871601 11.689399
v -5.617110 15.958101 13.039999
v -5.875110 15.958101 12.781999
v -5.969540 15.958101 12.429599
v -5.667060 15.958101 11.732699
v -5.264690 15.871601 11.574899
v -5.264680 15.785101 11.624899
v -4.837340 15.871601 11.689399
v -4.862310 15.785101 11.732699
v -4.567750 15.785101 12.027199
v -5.264690 15.958101 11.624899
v -4.524490 15.871601 12.002299
v -4.459930 15.785101 12.429599
v -4.862310 15.958101 11.732699
v -4.409990 15.871601 12.429599
v -4.567750 15.785101 12.831999
v -4.524490 15.871601 12.856999
v -4.567750 15.958101 12.831999
v -4.459940 15.958101 12.429599
v -4.567750 15.958101 12.027199
v -4.912260 15.958101 11.819199
v -4.654270 15.958101 12.077199
v -4.559840 15.958101 12.429599
v -4.654270 15.958101 12.781999
v -4.697530 15.871601 12.757099
v -4.609790 15.871601 12.429599
v -4.559830 15.785101 12.429599
v -4.654270 15.785101 12.781999
v -4.654270 15.785101 12.077199
v -4.697530 15.871601 12.102199
v -4.937240 15.871601 11.862399
v -4.912260 15.785101 11.819199
v -5.264690 15.871601 11.774699
v -5.264680 15.785101 11.724799
v -5.264690 15.958101 11.724799
v -5.592140 15.871601 11.862399
v -5.617110 15.785101 11.819199
v -5.617110 15.958101 11.819199
v -5.875110 15.958101 12.077199
v -5.831850 15.871601 12.102199
v -5.875100 15.785101 12.077199
v -5.969530 15.785101 12.429599
v -5.919590 15.871601 12.429599
v -5.875100 15.785101 12.781999
v -5.831850 15.871601 12.757099
v -5.617110 15.785101 13.039999
v -5.592140 15.871601 12.996799
v -5.264690 15.871601 13.084499
v -5.264680 15.785101 13.134499
v -4.937240 15.871601 12.996799
v -4.912260 15.785101 13.039999
v -4.697530 15.871601 12.757099
v -4.654270 15.785101 12.781999
v -5.264690 15.958101 13.134499
v -4.912260 15.958101 13.039999
v -4.654270 15.958101 12.781999
v -4.567750 15.958101 12.831999
v -4.862310 15.958101 13.126499
v -5.264690 15.958101 13.234399
v -5.264690 15.871601 13.284299
v -4.862310 15.785101 13.126499
v -4.837340 15.871601 13.169799
v -4.524490 15.871601 12.856999
v -4.567750 15.785101 12.831999
v -6.022260 15.749001 13.741799
v -5.264690 15.785001 13.914499
v -6.007110 15.785001 13.715499
v -5.264680 15.749001 13.944799
v -5.614340 15.785001 13.035199
v -6.550600 15.785001 13.171999
v -6.576840 15.749001 13.187199
v -5.264680 15.785001 13.128899
v -5.870300 15.785001 12.779299
v -6.749530 15.785001 12.429599
v -6.779830 15.749001 12.429599
v -5.963980 15.785001 12.429599
v -6.576840 15.749001 11.671999
v -6.550600 15.785001 11.687199
v -5.870300 15.785001 12.079999
v -6.022260 15.749001 11.117399
v -6.007110 15.785001 11.143699
v -5.614330 15.785001 11.823999
v -5.264680 15.785001 11.730299
v -5.264680 15.785001 10.944799
v -5.264680 15.749001 10.914499
v -4.915030 15.785001 11.823999
v -4.507110 15.749001 11.117399
v -4.522260 15.785001 11.143699
v -3.952530 15.749001 11.671999
v -3.978770 15.785101 11.687199
v -4.659070 15.785001 12.079999
v -3.779840 15.785101 12.429599
v -3.749530 15.749001 12.429599
v -4.565380 15.785001 12.429599
v -3.978770 15.785101 13.171999
v -3.952530 15.749001 13.187199
v -4.659070 15.785001 12.779299
v -4.522260 15.785001 13.715499
v -4.507110 15.749001 13.741799
v -4.915040 15.785001 13.035199
v -5.542920 14.447401 11.736300
v -5.522040 14.405001 11.811299
v -5.540250 14.404901 11.731999
v -5.523970 14.447601 11.808899
v -5.560890 14.454301 11.734399
v -5.514570 14.493601 11.746699
v -5.494310 14.494101 11.807499
v -5.559320 14.398801 11.729699
v -5.525470 14.510701 11.745899
v -5.505520 14.364901 11.734699
v -5.487310 14.364901 11.813999
v -5.518250 14.349401 11.732899
v -5.460550 14.347401 11.739199
v -5.457030 14.328201 11.739100
v -5.442350 14.347501 11.818499
v -5.405870 14.367201 11.748399
v -5.421080 14.381701 11.747199
v -5.421080 14.381701 11.747199
v -5.402050 14.381901 11.819099
v -5.381030 14.442501 11.761299
v -5.398040 14.454001 11.759799
v -5.398040 14.454001 11.759799
v -5.377900 14.454501 11.821699
v -5.329340 14.545901 11.786099
v -5.346020 14.553201 11.785099
v -5.346020 14.553201 11.785099
v -5.335720 14.545300 11.829899
v -5.294710 14.625501 11.819399
v -5.292950 14.607701 11.851799
v -5.294710 14.625501 11.819399
v -5.281590 14.620001 11.820999
v -5.272690 14.645201 11.828099
v -5.285820 14.650701 11.826599
v -5.292950 14.607701 11.851799
v -5.386630 14.555301 11.820899
v -5.406200 14.563701 11.774099
v -5.420570 14.574401 11.774299
v -5.305960 14.635501 11.819399
v -5.293230 14.657301 11.826599
v -5.294430 14.640501 11.858699
v -5.287680 14.632601 11.857899
v -5.272690 14.645201 11.828099
v -5.270790 14.627601 11.860299
v -5.518250 14.349401 11.732899
v -5.541110 14.398801 11.808999
v -5.559320 14.398801 11.729699
v -5.560890 14.454301 11.734399
v -5.500040 14.349401 11.812199
v -5.541940 14.454501 11.807099
v -5.525470 14.510701 11.745899
v -5.523970 14.447601 11.808899
v -5.522040 14.405001 11.811299
v -5.487310 14.364901 11.813999
v -5.494310 14.494101 11.807499
v -5.442350 14.347501 11.818499
v -5.505210 14.511201 11.806699
v -5.386630 14.555301 11.820899
v -5.420570 14.574401 11.774299
v -5.401000 14.565901 11.821099
v -5.305960 14.635501 11.819399
v -5.306810 14.619301 11.851999
v -5.292950 14.607701 11.851799
v -5.294430 14.640501 11.858699
v -5.293230 14.657301 11.826599
v -5.287680 14.632601 11.857899
v -5.270790 14.627601 11.860299
v -5.279680 14.602401 11.853199
v -5.319040 14.537901 11.830799
v -5.335720 14.545300 11.829899
v -5.377900 14.454501 11.821699
v -5.360890 14.443001 11.823199
v -5.402050 14.381901 11.819099
v -5.386850 14.367401 11.820399
v -5.438820 14.328201 11.818399
v -5.457030 14.328201 11.739100
v -5.518250 14.349401 11.732899
v -5.405870 14.367201 11.748399
v -5.386850 14.367401 11.820399
v -5.381030 14.442501 11.761299
v -5.360890 14.443001 11.823199
v -5.329340 14.545901 11.786099
v -5.319040 14.537901 11.830799
v -5.281590 14.620001 11.820999
v -5.279680 14.602401 11.853199
v -5.270790 14.627601 11.860299
v -5.272690 14.645201 11.828099
v -5.218920 16.625301 12.475399
v -5.240120 16.658001 12.454199
v -5.201600 16.648602 12.441799
v -5.218920 16.625301 12.475399
v -5.252470 16.648602 12.492699
v -5.238960 16.699100 12.455299
v -5.218920 16.625301 12.475399
v -5.226310 16.629700 12.518899
v -5.256430 16.685802 12.509799
v -5.219420 16.659100 12.546799
v -5.228470 16.715202 12.516699
v -5.202300 16.696301 12.542899
v -5.184980 16.719501 12.509299
v -5.216120 16.724602 12.478199
v -5.184980 16.719501 12.509299
v -5.177600 16.715202 12.465799
v -5.184980 16.719501 12.509299
v -5.184490 16.685802 12.437899
v -5.147480 16.659100 12.474899
v -5.151430 16.696301 12.491999
v -5.184980 16.719501 12.509299
v -5.175430 16.629700 12.467999
v -5.218920 16.625301 12.475399
v -5.164940 16.645802 12.529399
v -5.184980 16.719501 12.509299
v -5.163780 16.686901 12.530499
v -5.218920 16.625301 12.475399
v -5.187780 16.620300 12.506499
v -5.226310 16.629700 12.518899
v -5.218920 16.625301 12.475399
v -5.219420 16.659100 12.546799
v -5.202300 16.696301 12.542899
v -5.184980 16.719501 12.509299
v -4.522260 15.738401 11.143699
v -3.978770 15.738401 11.687199
v -5.264680 15.738401 12.429599
v -3.779840 15.738401 12.429599
v -5.264680 15.738401 10.944799
v -3.978770 15.738401 13.171999
v -6.007110 15.738401 11.143699
v -4.522260 15.738401 13.715499
v -6.550600 15.738401 11.687199
v -5.264680 15.738401 13.914499
v -6.749530 15.738401 12.429599
v -6.007110 15.738401 13.715499
v -6.550600 15.738401 13.171999
v -5.264680 15.738401 13.914499
v -4.507110 15.749001 13.741799
v -5.264680 15.749001 13.944799
v -4.522260 15.738401 13.715499
v -6.007110 15.738401 13.715499
v -3.952530 15.749001 13.187199
v -6.022260 15.749001 13.741799
v -3.978770 15.738401 13.171999
v -6.550600 15.738401 13.171999
v -3.779840 15.738401 12.429599
v -6.576840 15.749001 13.187199
v -3.749530 15.749001 12.429599
v -6.749530 15.738401 12.429599
v -3.978770 15.738401 11.687199
v -6.779830 15.749001 12.429599
v -3.952530 15.749001 11.671999
v -6.576840 15.749001 11.671999
v -4.522260 15.738401 11.143699
v -6.550600 15.738401 11.687199
v -4.507110 15.749001 11.117399
v -6.022260 15.749001 11.117399
v -5.264680 15.738401 10.944799
v -6.007110 15.738401 11.143699
v -5.264680 15.749001 10.914499
v -5.952050 15.741701 12.396299
v -5.963570 15.454801 12.380599
v -5.963570 15.445901 12.461999
v -5.931630 15.454801 12.380599
v -5.921610 15.741701 12.396299
v -5.927670 15.235101 12.344799
v -5.952050 15.741701 12.485099
v -5.961780 15.235101 12.344799
v -5.918140 15.104901 12.298899
v -5.931630 15.446001 12.461999
v -5.921610 15.741701 12.485099
v -5.921610 15.741701 12.396299
v -5.931630 15.454801 12.380599
v -5.927670 15.235101 12.344799
v -5.930670 15.219201 12.420199
v -5.964790 15.219201 12.420199
v -5.926890 15.080201 12.366899
v -5.918140 15.104901 12.298899
v -5.958280 15.080201 12.366899
v -5.070810 16.491199 12.623499
v -5.187040 16.608902 12.547999
v -5.162580 16.589001 12.531699
v -5.162580 16.589001 12.531699
v -5.176080 16.618900 12.518199
v -5.146350 16.608902 12.507299
v -5.070810 16.491199 12.623499
v -5.162580 16.589001 12.531699
v -5.035800 16.491100 12.617799
v -5.070810 16.491199 12.623499
v -5.046770 16.481102 12.647499
v -5.070810 16.491199 12.623499
v -5.076500 16.491100 12.658499
v -5.026270 16.496700 12.667999
v -5.068320 16.510799 12.683499
v -5.051050 16.538799 12.683999
v -5.021320 16.528801 12.672999
v -5.034810 16.558701 12.659499
v -5.010760 16.510799 12.625999
v -5.010350 16.538799 12.643299
v -5.034810 16.558701 12.659499
v -5.129080 16.636902 12.507699
v -5.171130 16.651001 12.523199
v -5.120900 16.656601 12.532699
v -5.126590 16.656502 12.567699
v -5.150630 16.666599 12.543699
v -5.126590 16.656502 12.567699
v -5.161590 16.656601 12.573399
v -5.126590 16.656502 12.567699
v -5.187040 16.608902 12.547999
v -5.162580 16.589001 12.531699
v -5.186630 16.636902 12.565199
v -5.051050 16.538799 12.683999
v -5.126590 16.656502 12.567699
v -5.068320 16.510799 12.683499
v -5.076500 16.491100 12.658499
v -5.070810 16.491199 12.623499
v -5.174040 16.519302 12.520299
v -5.392900 16.519302 12.429599
v -5.355350 16.519302 12.338999
v -5.264700 16.519302 12.557799
v -5.355350 16.519302 12.520299
v -5.136490 16.519302 12.429599
v -5.264700 16.519302 12.301399
v -5.174040 16.519302 12.338999
v -5.024360 16.441700 12.669899
v -5.037860 16.471600 12.656399
v -5.008130 16.461601 12.645499
v -5.032910 16.503700 12.661399
v -4.990860 16.489601 12.645899
v -4.726120 16.181103 12.888899
v -5.048820 16.461601 12.686199
v -5.048410 16.489601 12.703399
v -4.871330 16.181103 13.034099
v -4.774730 16.131401 12.882799
v -4.536060 15.968601 12.969199
v -4.877410 16.131401 12.985499
v -4.725100 15.968601 13.158199
v -4.838510 16.112001 12.921699
v -4.734010 15.908101 13.093899
v -4.623580 15.801301 13.235399
v -4.611830 15.872701 13.315299
v -4.687890 15.888901 13.006399
v -4.570230 15.782401 13.124099
v -4.600350 15.908101 12.960299
v -4.458930 15.801301 13.070699
v -4.378970 15.872701 13.082500
v -4.349580 15.785901 13.278799
v -4.241390 15.798301 13.207500
v -4.176980 15.838701 13.197599
v -4.129120 15.790401 13.344699
v -4.070150 15.813701 13.319999
v -3.974700 15.567901 13.338999
v -4.420870 15.798301 13.386999
v -4.430800 15.838701 13.451399
v -4.243090 15.781401 13.432699
v -4.331120 15.790401 13.546699
v -4.355820 15.813601 13.605699
v -4.305880 15.567901 13.670099
v -4.273120 15.568701 13.583999
v -4.060800 15.568701 13.371699
v -3.979880 15.333201 13.366699
v -4.186890 15.547201 13.457899
v -4.291560 15.347601 13.610399
v -4.327610 15.333201 13.714399
v -4.083930 15.347601 13.402699
v -4.211830 15.315901 13.482399
v -4.266670 15.125901 13.624099
v -4.331570 15.098001 13.735399
v -4.037180 15.125901 13.394599
v -3.925880 15.098001 13.329700
v -4.167780 15.081401 13.493499
v -4.226530 15.133201 13.664299
v -4.331570 15.098001 13.735399
v -3.997040 15.133201 13.434799
v -3.925880 15.098001 13.329700
v -4.327610 15.333201 13.714399
v -3.979880 15.333201 13.366699
v -4.105250 15.099901 13.556099
v -4.120470 15.339801 13.573799
v -4.233570 15.360801 13.668399
v -4.305880 15.567901 13.670099
v -4.228680 15.590701 13.628499
v -4.355820 15.813601 13.605699
v -4.025930 15.360801 13.460699
v -3.974700 15.567901 13.338999
v -4.115620 15.580701 13.529199
v -4.016360 15.590701 13.416199
v -4.070150 15.813701 13.319999
v -4.100710 15.837501 13.373099
v -4.198450 15.847101 13.477399
v -4.302710 15.837501 13.575099
v -4.430800 15.838701 13.451399
v -4.194080 15.883401 13.254799
v -4.176980 15.838701 13.197599
v -4.280090 15.905801 13.348299
v -4.373560 15.883401 13.434299
v -4.377200 15.954701 13.152399
v -4.378970 15.872701 13.082500
v -4.454650 15.999301 13.239599
v -4.541860 15.954701 13.317099
v -4.611830 15.872701 13.315299
v -4.532690 16.035103 13.027899
v -4.536060 15.968601 12.969199
v -4.726120 16.181103 12.888899
v -4.666360 16.035103 13.161599
v -4.725100 15.968601 13.158199
v -4.871330 16.181103 13.034099
v -4.592200 16.068502 13.102099
v -4.721150 16.232002 12.936399
v -4.982670 16.509300 12.670899
v -4.990860 16.489601 12.645899
v -5.032910 16.503700 12.661399
v -4.762720 16.254301 12.997499
v -4.988370 16.509201 12.705899
v -5.012410 16.519302 12.681899
v -5.023370 16.509300 12.711599
v -5.048410 16.489601 12.703399
v -4.823820 16.232002 13.039099
vn 0.7715 0.5117 -0.3779
vn 0.8373 0.4345 -0.3318
vn -0.4170 0.1888 -0.8891
vn 0.4495 0.0631 0.8911
vn 0.3860 0.1260 0.9139
vn 0.4565 0.0158 0.8896
vn 0.8697 0.2846 -0.4032
vn 0.4322 0.1022 0.8960
vn -0.4708 0.1412 -0.8709
vn -0.8797 -0.2435 0.4085
vn -0.8594 -0.2287 0.4573
vn 0.3860 0.1261 0.9138
vn 0.4566 0.0158 0.8895
vn -0.8977 -0.2126 0.3859
vn 0.4323 0.1021 0.8959
vn -0.4334 0.0709 -0.8984
vn -0.9166 -0.1264 0.3793
vn 0.4188 0.1660 0.8928
vn 0.8904 0.1812 -0.4176
vn 0.4187 0.1659 0.8928
vn -0.4088 -0.0314 -0.9121
vn 0.9160 0.0711 -0.3948
vn 0.3309 -0.3545 0.8745
vn -0.9287 -0.0236 0.3700
vn 0.3309 -0.3546 0.8745
vn -0.7747 -0.5059 0.3794
vn -0.3705 -0.1104 -0.9223
vn -0.3072 -0.7641 -0.5672
vn 0.7337 -0.6548 -0.1814
vn 0.7852 0.3926 -0.4790
vn 0.8571 0.2674 -0.4403
vn -0.4886 0.2522 -0.8353
vn 0.4900 0.0632 0.8694
vn 0.5600 -0.0237 0.8282
vn 0.5434 -0.0866 0.8350
vn 0.8495 0.0944 -0.5191
vn 0.5363 -0.0000 0.8440
vn -0.5216 0.2291 -0.8219
vn -0.8454 -0.0711 0.5293
vn -0.8247 -0.0943 0.5577
vn 0.5600 -0.0236 0.8281
vn 0.4901 0.0632 0.8694
vn 0.5435 -0.0866 0.8349
vn -0.8643 -0.0079 0.5029
vn 0.5364 -0.0000 0.8440
vn -0.5120 0.1654 -0.8429
vn -0.8656 0.0708 0.4957
vn 0.3995 -0.5013 0.7675
vn -0.7480 -0.4961 0.4409
vn -0.4964 0.0473 -0.8668
vn -0.5029 -0.0000 -0.8644
vn 0.6292 -0.6920 -0.3539
vn 0.8497 -0.0079 -0.5272
vn 0.3995 -0.5012 0.7676
vn -0.0551 -0.9847 0.1654
vn -0.7480 -0.4960 0.4409
vn 0.3290 0.8852 0.3290
vn -0.3228 0.8897 -0.3228
vn 0.0078 0.8896 0.4566
vn 0.4566 0.8896 0.0079
vn -0.4504 0.8928 0.0079
vn -0.3149 0.8897 0.3307
vn 0.0079 0.8928 -0.4504
vn 0.3307 0.8897 -0.3149
vn -0.6675 -0.3455 0.6596
vn -0.8345 0.5510 0.0079
vn -0.9379 -0.3468 -0.0079
vn -0.5977 0.5345 -0.5976
vn 0.0079 0.5510 -0.8345
vn 0.6596 -0.3455 -0.6675
vn -0.0079 -0.3468 -0.9379
vn 0.5904 0.5667 -0.5747
vn 0.9414 -0.3373 -0.0000
vn -0.5747 0.5668 0.5904
vn -0.0000 -0.3373 0.9414
vn 0.0157 0.5691 0.8221
vn -0.0079 0.7149 0.6992
vn 0.8184 0.5744 0.0157
vn 0.6658 -0.3368 0.6658
vn -0.4966 0.7173 0.4887
vn -0.6992 0.7149 -0.0078
vn -0.6769 -0.3070 0.6690
vn -0.0000 -0.3068 0.9518
vn -0.9518 -0.3068 -0.0000
vn -0.4947 0.7145 -0.4947
vn -0.7015 0.1261 0.7015
vn 0.0078 0.1491 0.9888
vn 0.0079 0.8896 0.4566
vn -0.3150 0.8896 0.3307
vn -0.6726 -0.3086 -0.6726
vn -0.9955 0.0948 -0.0000
vn -0.7044 0.0871 -0.7044
vn -0.0000 0.0948 -0.9955
vn -0.0079 0.7149 -0.6992
vn -0.0000 -0.3068 -0.9518
vn 0.4887 0.7173 -0.4966
vn 0.7015 0.1261 -0.7015
vn 0.3307 0.8896 -0.3149
vn 0.6992 0.7149 -0.0078
vn 0.6690 -0.3070 -0.6769
vn 0.9518 -0.3067 -0.0000
vn 0.9888 0.1491 0.0078
vn 0.6984 0.1569 0.6983
vn 0.0079 0.1491 0.9888
vn 0.6726 -0.3086 0.6726
vn 0.4947 0.7145 0.4947
vn -0.0078 0.7149 0.6992
vn 0.5825 0.5668 0.5825
vn 0.0158 0.5692 0.8221
vn -0.6936 0.2838 0.6621
vn 0.0078 0.6063 0.7952
vn -0.5561 0.6031 0.5718
vn -0.0079 0.2830 0.9591
vn -0.0079 0.3468 0.9379
vn -0.8019 0.5975 0.0079
vn -0.9590 0.2830 -0.0157
vn -0.6771 0.3228 0.6613
vn -0.6983 0.1177 0.7061
vn 0.0078 0.1414 0.9899
vn -0.9518 0.3068 -0.0079
vn -0.5693 0.5930 -0.5693
vn -0.6780 0.2839 -0.6780
vn -0.0000 0.1337 0.9910
vn -0.0157 0.2830 -0.9590
vn -0.7021 0.1184 0.7021
vn 0.0079 0.5975 -0.8019
vn 0.6621 0.2838 -0.6936
vn 0.5718 0.6031 -0.5561
vn 0.7952 0.6062 0.0079
vn 0.9591 0.2830 -0.0079
vn 0.6780 0.2839 0.6780
vn 0.5640 0.6032 0.5640
vn 0.0079 0.6063 0.7952
vn -0.0078 0.2830 0.9591
vn 0.6613 0.3542 0.6613
vn -0.0078 0.3468 0.9379
vn 0.0079 0.1414 0.9899
vn 0.9379 0.3468 -0.0079
vn 0.6613 0.3228 -0.6771
vn 0.9899 0.1414 0.0079
vn 0.7000 0.1415 0.7000
vn 0.0001 -0.3373 0.9414
vn 0.7061 0.1177 -0.6983
vn -0.0079 0.3068 -0.9518
vn 0.9910 0.1337 -0.0000
vn 0.7021 0.1183 -0.7021
vn -0.0000 0.0863 -0.9963
vn -0.6765 0.2911 -0.6765
vn -0.7053 0.0705 -0.7053
vn -0.9963 0.0863 -0.0000
vn -0.7042 0.0871 -0.7046
vn -0.6613 -0.3542 -0.6613
vn 0.3541 0.8656 0.3541
vn 0.0471 0.3300 0.9428
vn 0.4878 0.7239 0.4879
vn -0.3540 0.9126 -0.2046
vn -0.0000 1.0000 -0.0000
vn -0.2045 0.9126 -0.3540
vn -0.6226 0.6935 -0.3625
vn -0.4092 0.9124 -0.0000
vn -0.7225 0.6913 -0.0000
vn -0.9354 0.3536 -0.0000
vn -0.8084 0.3532 0.4709
vn -0.3471 0.9151 0.2051
vn -0.6226 0.6935 0.3625
vn -0.4648 0.3545 0.8114
vn -0.2045 0.9126 0.3540
vn -0.0000 0.9125 0.4092
vn 0.2045 0.9126 0.3540
vn 0.0079 0.6951 0.7188
vn -0.3556 0.6955 0.6244
vn 0.9428 0.3300 0.0471
vn 0.4879 0.7239 0.4878
vn -0.7054 0.0705 -0.7053
vn -0.0000 0.0947 -0.9955
vn -0.2824 0.8315 0.4784
vn -0.0079 0.8284 0.5601
vn -0.4805 0.8351 0.2678
vn 0.0078 0.3605 0.9327
vn 0.2831 0.8259 0.4876
vn -0.5510 0.8345 -0.0079
vn 0.4635 0.3613 0.8091
vn 0.4876 0.8259 0.2832
vn -0.8136 0.3476 -0.4661
vn -0.4734 0.8364 -0.2762
vn 0.8091 0.3613 0.4635
vn -0.4661 0.3476 -0.8136
vn -0.2761 0.8364 -0.4734
vn -0.0078 0.8345 -0.5510
vn 0.9327 0.3605 0.0078
vn 0.5601 0.8284 -0.0078
vn 0.6226 0.6935 0.3625
vn 0.8114 0.3545 -0.4648
vn 0.4785 0.8315 -0.2824
vn 0.7188 0.6951 0.0079
vn 0.3625 0.6935 0.6226
vn 0.3541 0.9125 0.2046
vn 0.4092 0.9125 -0.0000
vn 0.6244 0.6955 -0.3556
vn 0.3541 0.9125 -0.2046
vn 0.3625 0.6935 -0.6226
vn 0.4709 0.3532 -0.8084
vn 0.2679 0.8351 -0.4805
vn 0.2051 0.9151 -0.3471
vn -0.0000 0.6914 -0.7225
vn -0.0000 0.3536 -0.9354
vn -0.3625 0.6935 -0.6226
vn -0.0000 0.9124 -0.4093
vn -0.7253 -0.5282 0.4415
vn -0.7001 0.2281 -0.6766
vn -0.6936 0.2837 -0.6621
vn -0.0000 0.5975 -0.8019
vn -0.7002 -0.6766 0.2281
vn 0.5684 -0.3553 0.7421
vn 0.5648 -0.3373 0.7531
vn 0.9403 0.1264 0.3161
vn 0.6545 0.7255 -0.2129
vn -0.6440 0.2513 -0.7225
vn -0.5431 -0.8343 0.0944
vn 0.5287 -0.2920 0.7970
vn 0.5028 0.8563 -0.1179
vn -0.5908 0.1339 -0.7956
vn 0.5028 0.8563 -0.1178
vn 0.4826 -0.3402 0.8070
vn -0.4082 -0.9107 -0.0628
vn 0.3773 0.9196 0.1100
vn 0.4557 0.5972 0.6601
vn 0.2203 0.9600 0.1731
vn 0.2292 0.7116 0.6641
vn 0.1184 0.9715 0.2054
vn -0.0000 0.7565 0.6540
vn -0.0000 0.9715 0.2370
vn -0.1185 0.9715 0.2054
vn -0.2205 0.7167 0.6616
vn -0.2209 0.9625 0.1578
vn -0.4495 0.5993 0.6624
vn -0.3684 0.9249 0.0940
vn -0.4712 -0.3691 0.8011
vn -0.4899 0.8613 -0.1344
vn -0.5192 -0.3147 0.7946
vn -0.6393 0.7341 -0.2289
vn -0.5579 -0.3458 0.7544
vn -0.9412 0.1255 0.3137
vn 0.3927 -0.9188 -0.0393
vn 0.5270 -0.8416 0.1180
vn 0.2757 -0.9374 -0.2127
vn 0.0079 -0.9414 0.3373
vn 0.5687 0.1659 -0.8057
vn 0.1501 -0.9558 -0.2528
vn 0.0474 -0.9704 0.2367
vn 0.3698 -0.6530 -0.6609
vn 0.1650 -0.7466 -0.6445
vn 0.4655 0.1736 -0.8679
vn -0.0000 -0.9658 -0.2591
vn -0.0000 -0.9849 0.1733
vn -0.0000 -0.7778 -0.6285
vn -0.0473 -0.9704 0.2367
vn -0.1650 -0.7466 -0.6445
vn -0.1575 -0.9527 -0.2598
vn -0.0078 -0.9414 0.3373
vn -0.3698 -0.6530 -0.6609
vn -0.2841 -0.9311 -0.2288
vn -0.4740 0.1422 -0.8690
vn 0.3773 0.9195 0.1101
vn -0.0079 0.9290 -0.3700
vn 0.2203 0.9599 0.1731
vn 0.0236 0.9610 -0.2757
vn 0.1185 0.9715 0.2053
vn -0.0000 0.9787 -0.2052
vn -0.0000 0.9715 0.2369
vn -0.1185 0.9715 0.2053
vn -0.0237 0.9610 -0.2757
vn -0.2209 0.9624 0.1578
vn 0.0079 0.9290 -0.3700
vn -0.3684 0.9249 0.0941
vn -0.4900 0.8613 -0.1343
vn -0.6394 0.7341 -0.2289
vn 0.6284 0.2671 -0.7306
vn -0.0000 0.6012 -0.7991
vn 0.6859 0.2838 -0.6701
vn -0.7556 0.3542 -0.5510
vn 0.6843 -0.6843 0.2517
vn 0.7190 -0.5294 0.4504
vn -0.5668 -0.3621 0.7400
vn -0.6314 -0.2921 0.7183
vn 0.7261 -0.3630 0.5840
vn 0.7001 0.2282 -0.6766
vn -0.7400 0.1889 -0.6455
vn -0.6703 -0.1892 0.7176
vn -0.7400 0.1890 -0.6456
vn -0.6915 -0.1022 0.7151
vn -0.7170 0.0709 -0.6934
vn -0.7264 0.0158 -0.6870
vn -0.6686 -0.0787 0.7394
vn 0.7115 -0.2055 0.6720
vn 0.7088 -0.0788 0.7010
vn 0.6828 -0.0314 0.7299
vn 0.7402 0.0630 -0.6694
vn 0.7147 0.1492 -0.6833
vn -0.7171 0.0709 -0.6934
vn 0.7240 0.0865 -0.6844
vn -0.7265 0.0158 -0.6870
vn -0.1971 -0.8906 -0.4098
vn -0.6153 -0.3077 -0.7258
vn 0.1027 -0.3475 -0.9320
vn -0.6789 0.3315 -0.6552
vn 0.2920 0.2762 -0.9156
vn 0.9638 -0.0554 -0.2607
vn -0.8485 -0.5264 -0.0550
vn -0.9638 0.0553 0.2607
vn -0.2921 -0.2763 0.9156
vn 0.6222 -0.6301 -0.4647
vn 0.6789 -0.3315 0.6552
vn 0.4019 -0.8825 0.2443
vn -0.3537 -0.8253 0.4402
vn -0.1027 0.3475 0.9320
vn -0.9638 0.0554 0.2607
vn 0.6153 0.3077 0.7258
vn -0.6222 0.6300 0.4647
vn -0.6789 0.3316 -0.6551
vn 0.1970 0.8906 0.4099
vn 0.8485 0.5264 0.0550
vn 0.9638 -0.0553 -0.2607
vn 0.2921 0.2763 -0.9156
vn -0.4019 0.8825 -0.2443
vn 0.3537 0.8253 -0.4402
vn -0.5363 0.8440 0.0079
vn -0.8677 -0.0079 0.4970
vn -0.4642 0.8418 0.2754
vn -0.4409 -0.4961 0.7480
vn -0.7566 -0.4965 0.4256
vn -0.8677 -0.4970 -0.0079
vn -0.4970 0.0079 0.8677
vn -0.0079 -0.4970 0.8677
vn -0.9999 -0.0157 -0.0000
vn -0.7506 -0.4977 -0.4346
vn -0.2671 0.8405 0.4713
vn -0.8641 -0.0236 -0.5028
vn -0.4345 -0.4978 -0.7506
vn -0.4713 0.8405 -0.2671
vn -0.5028 -0.0236 -0.8641
vn 0.2054 0.9087 -0.3635
vn 0.3629 0.9072 -0.2130
vn 0.4251 0.9052 -0.0000
vn -0.2671 0.8405 -0.4713
vn -0.0000 -0.0157 -0.9999
vn -0.0079 -0.4970 -0.8677
vn 0.4970 -0.0079 -0.8677
vn 0.4256 -0.4965 -0.7566
vn 0.7480 -0.4960 -0.4409
vn 0.0079 0.8440 -0.5363
vn 0.8677 0.0079 -0.4970
vn 0.8677 -0.4970 -0.0079
vn 0.2754 0.8418 -0.4642
vn 0.9999 0.0157 -0.0000
vn 0.7506 -0.4978 0.4345
vn 0.8641 0.0236 0.5027
vn 0.4796 0.8333 0.2751
vn 0.5511 0.8344 0.0079
vn 0.4714 0.8405 -0.2671
vn -0.2130 0.9072 0.3629
vn -0.3635 0.9087 0.2054
vn -0.4091 0.9125 -0.0079
vn -0.3541 0.9126 -0.2045
vn -0.8677 -0.0158 -0.4969
vn -1.0000 -0.0079 -0.0000
vn -0.8677 -0.4970 0.0079
vn -0.7506 -0.4978 -0.4345
vn -0.8677 -0.0000 0.4970
vn -0.4970 -0.0000 0.8677
vn -0.4239 -0.5024 0.7536
vn -0.0000 0.0078 1.0000
vn 0.0079 -0.4970 0.8677
vn -0.0000 0.9052 0.4250
vn 0.4969 0.0158 0.8676
vn 0.4345 -0.4978 0.7506
vn 0.2124 0.9046 0.3697
vn 0.3697 0.9045 0.2124
vn 0.8676 0.0158 0.4969
vn 0.7506 -0.4978 0.4346
vn 0.8677 -0.4970 0.0079
vn 1.0000 0.0079 -0.0000
vn 0.7536 -0.5024 -0.4239
vn 0.8677 -0.0000 -0.4970
vn 0.4409 -0.4961 -0.7480
vn 0.4970 -0.0000 -0.8677
vn -0.0000 -0.0079 -1.0000
vn 0.0079 -0.4970 -0.8677
vn -0.4969 -0.0158 -0.8676
vn -0.8676 -0.0158 -0.4970
vn -0.7506 -0.4978 -0.4346
vn -0.0079 0.9125 -0.4091
vn 0.4795 0.8333 0.2752
vn 0.2751 0.8333 0.4795
vn 0.0079 0.8344 0.5510
vn 0.0001 0.0157 0.9999
vn 0.4346 -0.4977 0.7506
vn 0.5028 0.0236 0.8641
vn 0.8641 0.0236 0.5028
vn -0.3852 0.6446 0.6604
vn -0.0000 0.8815 0.4722
vn -0.2286 0.8830 0.4100
vn -0.0000 0.6456 0.7637
vn -0.2824 0.8314 0.4785
vn -0.3999 0.8859 0.2352
vn -0.6667 0.6432 0.3765
vn -0.4806 0.8350 0.2679
vn -0.4628 0.8864 0.0078
vn -0.7637 0.6456 -0.0079
vn -0.5511 0.8344 -0.0079
vn -0.6604 0.6446 -0.3852
vn -0.4006 0.8875 -0.2278
vn -0.3852 0.6446 -0.6604
vn -0.2278 0.8875 -0.4006
vn -0.2762 0.8364 -0.4734
vn -0.0079 0.8344 -0.5511
vn 0.0078 0.8864 -0.4628
vn -0.0079 0.6456 -0.7637
vn 0.2678 0.8351 -0.4806
vn 0.3765 0.6432 -0.6667
vn 0.2352 0.8859 -0.3998
vn 0.6604 0.6446 -0.3852
vn 0.4100 0.8830 -0.2287
vn 0.4722 0.8815 -0.0000
vn 0.7637 0.6455 -0.0000
vn 0.5602 0.8284 -0.0079
vn 0.4092 0.8814 0.2361
vn 0.6604 0.6446 0.3852
vn 0.4877 0.8258 0.2831
vn 0.2361 0.8814 0.4092
vn 0.3852 0.6446 0.6604
vn 0.5922 -0.0237 -0.8054
vn 0.8977 0.3859 -0.2127
vn 0.5409 0.2352 -0.8075
vn 0.9365 -0.2440 -0.2518
vn 0.1418 0.1024 -0.9846
vn 0.5367 -0.2763 -0.7972
vn 0.6671 -0.6985 -0.2590
vn 0.1102 0.0630 -0.9919
vn 0.1733 0.1260 -0.9768
vn 0.4263 0.4816 -0.7657
vn 0.5448 0.8290 -0.1263
vn 0.1104 0.0315 -0.9934
vn 0.0946 0.5757 -0.8122
vn 0.0946 -0.7888 -0.6073
vn -0.1897 0.4981 0.8461
vn 0.6141 -0.3779 -0.6928
vn -0.7856 0.5813 0.2121
vn 0.1651 0.0864 -0.9825
vn -0.5129 0.2762 0.8128
vn 0.6329 -0.1028 -0.7674
vn -0.9077 0.3157 0.2763
vn 0.1653 0.1417 -0.9760
vn -0.6144 0.1969 0.7640
vn 0.6304 -0.0788 -0.7722
vn -0.8641 0.4164 0.2828
vn 0.1807 0.2200 -0.9586
vn -0.6305 0.2049 0.7487
vn -0.8377 0.4662 0.2845
vn -0.3691 -0.0707 0.9267
vn 0.3231 0.0315 -0.9458
vn 0.7088 -0.0788 -0.7010
vn 0.6622 -0.0237 -0.7489
vn 0.5344 0.7309 -0.4244
vn 0.5526 -0.7341 -0.3947
vn 0.5492 -0.7610 -0.3452
vn 0.4722 -0.3463 -0.8106
vn 0.1892 0.1971 -0.9619
vn 0.2053 0.2448 -0.9476
vn 0.6485 0.6406 -0.4112
vn -0.1261 0.6225 0.7724
vn 0.1339 0.3228 0.9370
vn 0.2351 0.8463 0.4780
vn 0.0236 0.3928 0.9193
vn -0.5996 -0.7889 0.1341
vn -0.6935 -0.2443 0.6777
vn -0.9136 -0.3465 0.2127
vn -0.9457 0.2049 0.2522
vn -0.4477 -0.6283 0.6362
vn -0.6682 0.2044 0.7154
vn -0.7336 0.6310 0.2524
vn -0.0790 0.0474 0.9957
vn -0.1104 0.0079 0.9939
vn -0.1104 -0.0315 0.9934
vn -0.0629 -0.0000 0.9980
vn -0.1898 0.4982 0.8461
vn -0.4957 0.4800 0.7238
vn -0.1415 -0.1730 0.9747
vn -0.5254 0.7999 0.2902
vn -0.4252 0.4173 0.8032
vn -0.7329 0.6147 0.2916
vn -0.5217 0.1976 0.8299
vn -0.1261 0.6226 0.7723
vn -0.8722 0.4479 0.1965
vn 0.1338 0.3229 0.9369
vn 0.0236 0.3929 0.9193
vn -0.1810 -0.2125 0.9602
vn -0.1336 -0.1335 0.9820
vn -0.0948 -0.0237 0.9952
vn -0.0629 0.0079 0.9980
vn 0.1495 -0.8104 0.5665
vn 0.0947 -0.7887 -0.6074
vn -0.5996 -0.7890 0.1341
vn 0.6141 -0.3779 -0.6929
vn 0.8244 -0.5182 -0.2277
vn 0.9008 -0.3368 -0.2742
vn 0.6304 -0.0788 -0.7723
vn 0.8735 -0.4013 -0.2754
vn 0.8992 -0.3628 -0.2445
vn 0.9390 -0.2761 -0.2052
vn 0.6622 -0.0236 -0.7489
vn -0.3228 -0.8897 -0.3228
vn -0.6780 -0.2838 -0.6780
vn -0.0079 -0.4503 -0.8928
vn -0.8928 -0.4504 -0.0079
vn -0.6292 0.4562 -0.6292
vn -0.4402 -0.7781 0.4480
vn -0.9269 0.2277 0.2984
vn -0.2985 -0.2278 0.9268
vn -0.4496 0.7808 0.4338
vn 0.0079 0.4504 0.8928
vn 0.3228 0.8897 0.3228
vn -0.2357 0.9428 -0.2357
vn 0.4338 0.7808 -0.4496
vn 0.2985 0.2278 -0.9268
vn 0.9269 -0.2277 -0.2984
vn 0.8928 0.4504 0.0079
vn 0.4480 -0.7781 -0.4402
vn 0.6292 -0.4562 0.6292
vn 0.3229 0.8897 0.3228
vn 0.6780 0.2838 0.6780
vn 0.2357 -0.9428 0.2357
vn -0.4401 -0.7782 0.4480
vn 0.0079 0.4503 0.8928
vn 0.3228 0.8897 0.3229
vn 0.0942 -0.9818 -0.1649
vn 0.1649 -0.9818 -0.0942
vn -0.0000 -1.0000 -0.0000
vn 0.1885 -0.9821 -0.0000
vn -0.0000 -0.9806 -0.1961
vn 0.1649 -0.9818 0.0942
vn -0.0941 -0.9805 -0.1725
vn 0.0942 -0.9818 0.1649
vn -0.1725 -0.9805 -0.0941
vn -0.0000 -0.9821 0.1885
vn -0.1961 -0.9806 -0.0000
vn -0.0942 -0.9818 0.1649
vn -0.1649 -0.9818 0.0942
vn -0.0000 -0.9821 0.1886
vn 0.1653 -0.9446 0.2834
vn -0.0000 -0.9439 0.3302
vn 0.0943 -0.9818 0.1650
vn -0.0943 -0.9818 0.1650
vn 0.2834 -0.9446 0.1653
vn -0.1653 -0.9446 0.2835
vn 0.1650 -0.9818 0.0943
vn -0.1650 -0.9818 0.0943
vn 0.1886 -0.9821 -0.0000
vn -0.2834 -0.9446 0.1653
vn 0.3301 -0.9439 -0.0000
vn 0.1650 -0.9818 -0.0943
vn -0.3302 -0.9439 -0.0000
vn 0.2835 -0.9446 -0.1653
vn -0.2835 -0.9446 -0.1653
vn 0.0943 -0.9818 -0.1650
vn -0.1726 -0.9805 -0.0941
vn 0.1653 -0.9446 -0.2835
vn -0.1653 -0.9447 -0.2834
vn -0.0000 -0.9806 -0.1962
vn -0.0941 -0.9805 -0.1726
vn -0.0000 -0.9439 -0.3302
vn -0.7096 0.0631 -0.7017
vn -0.7240 0.0865 -0.6844
vn -0.7088 -0.0788 0.7010
vn 0.7174 0.0631 -0.6938
vn 0.7492 0.0079 -0.6623
vn 0.7411 0.1813 -0.6464
vn -0.6537 -0.0315 0.7561
vn -0.7186 0.1500 -0.6791
vn 0.7577 0.3473 -0.5524
vn 0.6915 -0.1022 0.7151
vn 0.6970 -0.0783 0.7127
vn 0.7491 0.0078 -0.6624
vn 0.7411 0.1813 -0.6465
vn 0.6756 -0.1807 0.7148
vn -0.7142 -0.2119 0.6671
vn 0.6376 -0.2834 0.7163
vn 0.7577 0.3473 -0.5525
vn -0.7310 -0.3694 0.5738
vn -0.3541 -0.8656 -0.3541
vn -0.9428 -0.3300 -0.0471
vn -0.4879 -0.7239 -0.4878
vn -0.4878 -0.7239 -0.4879
vn -0.7028 -0.1106 -0.7028
vn -0.0471 -0.3300 -0.9428
vn 0.3545 -0.7719 -0.5277
vn -0.3540 -0.8656 -0.3541
vn 0.1183 -0.9859 0.1183
vn -0.5277 -0.7719 0.3544
vn 0.5611 -0.6085 0.5611
vn -0.3315 -0.3078 0.8918
vn 0.0471 0.3299 0.9428
vn 0.7028 0.1106 0.7027
vn 0.8918 -0.3078 -0.3315
vn 0.9428 0.3299 0.0471
vn 0.4879 0.7239 0.4879
vn 0.3315 0.3078 -0.8918
vn -0.5611 0.6085 -0.5611
vn 0.5277 0.7719 -0.3545
vn -0.1183 0.9859 -0.1183
vn 0.3541 0.8656 0.3540
vn -0.3545 0.7719 0.5277
vn -0.9428 -0.3299 -0.0471
vn -0.8918 0.3078 0.3315
vn -0.5278 -0.7719 0.3544
vn -0.5278 -0.6460 -0.5515
vn -0.0790 -0.3081 -0.9481
vn 0.3228 0.3228 -0.8897
vn 0.6238 0.1105 -0.7738
vn -0.9530 -0.2678 -0.1418
vn -0.8949 0.3689 0.2512
vn -0.7403 0.0630 0.6694
vn 0.0157 -0.4472 -0.8943
vn 0.5584 0.0786 -0.8258
vn -0.8788 -0.4707 0.0785
vn -0.7564 -0.0158 0.6539
vn -0.5592 -0.6458 -0.5198
vn -0.8036 -0.5909 0.0709
vn -0.5489 -0.7998 0.2431
vn -0.6829 -0.1099 0.7222
vn -0.4739 -0.7266 -0.4976
vn -0.2361 -0.9445 -0.2282
vn 0.0395 -0.5211 -0.8526
vn 0.1882 -0.7922 -0.5804
vn 0.5835 -0.0000 -0.8121
vn -0.0000 -0.9997 -0.0236
vn 0.2518 -0.8733 -0.4170
vn 0.6866 -0.0394 -0.7260
vn -0.1415 -0.7155 -0.6841
vn -0.0158 -0.6150 -0.7884
vn -0.3385 -0.1496 -0.9290
vn -0.2902 -0.9256 0.2431
vn -0.7092 -0.0709 0.7014
vn -0.4266 -0.8058 -0.4108
vn -0.7382 -0.6596 -0.1414
vn -0.8437 -0.5283 -0.0946
vn -0.9372 -0.1103 -0.3308
vn -0.8822 -0.1418 -0.4490
vn -0.4322 -0.1572 -0.8880
vn -0.3925 -0.0471 -0.9185
vn -0.6890 -0.1331 -0.7125
vn -0.8858 -0.0392 -0.4625
vn -0.9191 -0.0314 -0.3928
vn -0.4710 -0.0707 -0.8793
vn -0.7162 -0.0866 -0.6925
vn -0.6012 -0.7436 -0.2927
vn -0.8984 -0.0709 -0.4334
vn -0.2990 -0.7240 -0.6217
vn -0.4251 -0.0079 -0.9051
vn -0.3937 -0.8269 -0.4016
vn 0.4807 -0.5752 0.6619
vn 0.5571 -0.3138 0.7689
vn 0.6838 -0.5501 0.4794
vn 0.7637 -0.3228 0.5590
vn 0.4710 0.0707 0.8793
vn 0.8793 0.0706 0.4710
vn 0.5128 -0.6943 0.5049
vn 0.7021 0.0552 0.7099
vn 0.5530 0.0790 0.8294
vn 0.4026 0.2053 0.8921
vn 0.5354 0.2362 0.8109
vn 0.0628 0.6358 0.7693
vn 0.8169 0.0628 0.5734
vn 0.8961 0.1729 0.4088
vn 0.6936 0.2207 0.6857
vn 0.8219 0.2292 0.5216
vn 0.7861 0.6131 0.0786
vn 0.6679 0.6915 0.2751
vn 0.4799 0.7239 0.4957
vn 0.2054 0.7267 0.6556
vn 0.4863 0.8550 -0.1804
vn 0.6865 -0.0395 -0.7260
vn 0.2675 0.9362 0.2282
vn -0.1028 0.8699 0.4824
vn 0.5445 0.7892 -0.2841
vn 0.2430 0.9327 0.2665
vn -0.2427 0.7203 0.6498
vn 0.6843 0.6686 -0.2911
vn 0.6238 0.1106 -0.7737
vn -0.1971 0.6230 0.7570
vn -0.7564 -0.0158 0.6540
vn -0.7402 0.0630 0.6694
vn 0.3919 0.8464 0.3605
vn 0.7715 0.6220 -0.1338
vn 0.5217 0.7825 -0.3399
vn 0.3228 0.3229 -0.8897
vn -0.5611 0.6086 -0.5611
vn 0.4243 0.7779 0.4636
vn 0.3545 0.8745 0.3309
vn -0.3454 0.8163 0.4631
vn -0.8949 0.3690 0.2512
vn -0.1493 0.5895 0.7939
vt 0.986000 0.588037
vt 0.985436 0.584813
vt 0.986522 0.587818
vt 0.985189 0.584893
vt 0.985877 0.588110
vt 0.984473 0.573936
vt 0.984760 0.573965
vt 0.983880 0.564079
vt 0.986507 0.584352
vt 0.986759 0.584312
vt 0.986647 0.587809
vt 0.987874 0.584796
vt 0.987143 0.588087
vt 0.988064 0.573579
vt 0.986540 0.573334
vt 0.988147 0.563635
vt 0.986259 0.573449
vt 0.986334 0.563438
vt 0.988147 0.552003
vt 0.984189 0.564019
vt 0.983224 0.552619
vt 0.986029 0.563466
vt 0.983522 0.552462
vt 0.983426 0.543700
vt 0.986099 0.551750
vt 0.987767 0.541852
vt 0.985521 0.541590
vt 0.985774 0.551650
vt 0.985180 0.541360
vt 0.984850 0.540791
vt 0.983734 0.543815
vt 0.991116 0.616594
vt 0.991670 0.619913
vt 0.990599 0.616788
vt 0.991240 0.616522
vt 0.991918 0.619834
vt 0.992592 0.631008
vt 0.992304 0.630984
vt 0.993181 0.640940
vt 0.990602 0.620316
vt 0.990348 0.620346
vt 0.990473 0.616793
vt 0.989242 0.619896
vt 0.989981 0.616530
vt 0.989009 0.631306
vt 0.990520 0.631503
vt 0.988899 0.641390
vt 0.990803 0.631402
vt 0.990645 0.641484
vt 0.989098 0.652671
vt 0.991097 0.652746
vt 0.990946 0.641462
vt 0.991421 0.652879
vt 0.992885 0.650770
vt 0.992897 0.640979
vt 0.993181 0.650955
vt 0.991702 0.653490
vt 0.948955 0.680969
vt 0.953457 0.701956
vt 0.945771 0.687116
vt 0.953457 0.680969
vt 0.948955 0.701957
vt 0.945771 0.695809
vt 0.956640 0.695809
vt 0.956640 0.687116
vt 0.943097 0.623556
vt 0.943097 0.629472
vt 0.943097 0.635388
vt 0.943097 0.641304
vt 0.943097 0.647219
vt 0.943097 0.653135
vt 0.943097 0.617640
vt 0.943097 0.659051
vt 0.943097 0.664967
vt 0.930843 0.623556
vt 0.930843 0.617640
vt 0.930843 0.629472
vt 0.930843 0.635388
vt 0.930843 0.641304
vt 0.930843 0.647219
vt 0.930843 0.653135
vt 0.930843 0.659051
vt 0.930843 0.664967
vt 0.905740 0.655723
vt 0.911661 0.659534
vt 0.958170 0.642566
vt 0.960549 0.643460
vt 0.958269 0.644925
vt 0.955487 0.641579
vt 0.958755 0.640476
vt 0.956708 0.637249
vt 0.954110 0.633419
vt 0.957577 0.628959
vt 0.959800 0.639244
vt 0.958878 0.634653
vt 0.961785 0.628414
vt 0.961010 0.639176
vt 0.962053 0.640244
vt 0.962661 0.642105
vt 0.963604 0.636740
vt 0.961414 0.634482
vt 0.911661 0.629047
vt 0.905740 0.632858
vt 0.962166 0.616522
vt 0.969298 0.622028
vt 0.954874 0.618653
vt 0.965536 0.632056
vt 0.974178 0.634478
vt 0.949391 0.627041
vt 0.967695 0.638800
vt 0.974178 0.649909
vt 0.952228 0.640421
vt 0.946853 0.638631
vt 0.968024 0.646621
vt 0.952530 0.648220
vt 0.946991 0.650970
vt 0.950325 0.662364
vt 0.966186 0.653712
vt 0.970312 0.662594
vt 0.965063 0.645228
vt 0.962691 0.658101
vt 0.963786 0.669671
vt 0.964025 0.649459
vt 0.964840 0.640683
vt 0.962758 0.644277
vt 0.962264 0.646296
vt 0.961972 0.652179
vt 0.961288 0.647604
vt 0.959446 0.652574
vt 0.958491 0.658517
vt 0.956430 0.669447
vt 0.960082 0.647817
vt 0.957145 0.650484
vt 0.954772 0.654845
vt 0.955701 0.646471
vt 0.958973 0.646843
vt 0.945095 0.652987
vt 0.944623 0.654965
vt 0.944642 0.653009
vt 0.944372 0.652919
vt 0.945023 0.651047
vt 0.945288 0.652917
vt 0.945336 0.650773
vt 0.945754 0.652881
vt 0.945765 0.650644
vt 0.944625 0.650942
vt 0.944275 0.650658
vt 0.945032 0.649569
vt 0.945305 0.649130
vt 0.945715 0.649046
vt 0.944655 0.649520
vt 0.944377 0.649074
vt 0.945262 0.647658
vt 0.945015 0.648069
vt 0.945626 0.647410
vt 0.945223 0.645770
vt 0.945573 0.645316
vt 0.945208 0.643607
vt 0.945601 0.643294
vt 0.945194 0.641528
vt 0.945607 0.641509
vt 0.945605 0.639697
vt 0.945211 0.639416
vt 0.945582 0.637604
vt 0.945229 0.637175
vt 0.945643 0.635412
vt 0.945273 0.635198
vt 0.945731 0.633676
vt 0.945316 0.633625
vt 0.945775 0.631999
vt 0.945349 0.631873
vt 0.945766 0.629676
vt 0.945033 0.634769
vt 0.945054 0.633143
vt 0.944999 0.636830
vt 0.944668 0.633161
vt 0.944996 0.639273
vt 0.944648 0.637226
vt 0.944609 0.639553
vt 0.944655 0.634930
vt 0.945012 0.641538
vt 0.944586 0.641521
vt 0.944608 0.643460
vt 0.944991 0.643775
vt 0.944643 0.645703
vt 0.944987 0.646125
vt 0.944646 0.647876
vt 0.944368 0.647430
vt 0.944405 0.645361
vt 0.944385 0.643310
vt 0.944372 0.641506
vt 0.944388 0.639677
vt 0.944416 0.637554
vt 0.944385 0.635385
vt 0.944402 0.633643
vt 0.944308 0.631983
vt 0.944645 0.631640
vt 0.944408 0.629640
vt 0.944669 0.629492
vt 0.944435 0.627601
vt 0.945046 0.631538
vt 0.945119 0.629513
vt 0.945307 0.629625
vt 0.945349 0.627501
vt 0.945830 0.627659
vt 0.945141 0.627428
vt 0.944652 0.627523
vt 0.944405 0.625510
vt 0.945405 0.625435
vt 0.945930 0.625584
vt 0.945453 0.622116
vt 0.946037 0.622228
vt 0.946158 0.617865
vt 0.945513 0.617664
vt 0.945173 0.625383
vt 0.945226 0.622083
vt 0.945289 0.617640
vt 0.944633 0.617781
vt 0.944645 0.625456
vt 0.944412 0.622152
vt 0.944641 0.622129
vt 0.944413 0.617793
vt 0.938330 0.698320
vt 0.939432 0.701744
vt 0.937325 0.702046
vt 0.940976 0.708930
vt 0.935692 0.708673
vt 0.932726 0.699773
vt 0.940172 0.698250
vt 0.944081 0.699457
vt 0.941028 0.689101
vt 0.936434 0.698340
vt 0.935187 0.689895
vt 0.937493 0.695429
vt 0.939094 0.695688
vt 0.939050 0.681925
vt 0.944081 0.678967
vt 0.936711 0.681793
vt 0.939940 0.677738
vt 0.941102 0.668272
vt 0.937842 0.677898
vt 0.935802 0.677998
vt 0.931507 0.679711
vt 0.934618 0.667956
vt 0.938693 0.674618
vt 0.936928 0.675060
vt 0.886358 0.606929
vt 0.885604 0.588924
vt 0.887916 0.589587
vt 0.885933 0.570790
vt 0.883306 0.588183
vt 0.881590 0.606294
vt 0.888194 0.571929
vt 0.889321 0.554067
vt 0.883929 0.606666
vt 0.880898 0.624770
vt 0.890389 0.573049
vt 0.883255 0.624760
vt 0.881386 0.643339
vt 0.885746 0.624664
vt 0.883621 0.642941
vt 0.892304 0.574365
vt 0.890040 0.590548
vt 0.888607 0.607429
vt 0.886182 0.642521
vt 0.885274 0.660857
vt 0.882962 0.661657
vt 0.887818 0.678251
vt 0.885535 0.679390
vt 0.888941 0.696707
vt 0.887685 0.660154
vt 0.891213 0.695137
vt 0.893315 0.713474
vt 0.890129 0.677157
vt 0.895563 0.711323
vt 0.898602 0.729616
vt 0.901135 0.727434
vt 0.903055 0.724273
vt 0.897580 0.709278
vt 0.893407 0.693576
vt 0.892131 0.675941
vt 0.895429 0.691839
vt 0.899531 0.706974
vt 0.904585 0.720501
vt 0.906311 0.717081
vt 0.901703 0.704178
vt 0.903720 0.701698
vt 0.908240 0.715052
vt 0.899752 0.687397
vt 0.897613 0.689579
vt 0.894424 0.674239
vt 0.896711 0.672513
vt 0.892291 0.658201
vt 0.894744 0.657062
vt 0.889908 0.659263
vt 0.891069 0.641648
vt 0.893658 0.641167
vt 0.888623 0.642094
vt 0.888067 0.624742
vt 0.890484 0.624820
vt 0.893234 0.624926
vt 0.893538 0.608727
vt 0.891029 0.608048
vt 0.894694 0.592995
vt 0.892361 0.591766
vt 0.896742 0.577816
vt 0.894552 0.576139
vt 0.897741 0.561351
vt 0.899814 0.563412
vt 0.901810 0.547394
vt 0.903763 0.549722
vt 0.906148 0.534479
vt 0.908240 0.536440
vt 0.895571 0.559130
vt 0.899616 0.544709
vt 0.904386 0.531474
vt 0.902959 0.528096
vt 0.897677 0.542397
vt 0.893614 0.557342
vt 0.891543 0.555728
vt 0.893624 0.538011
vt 0.895776 0.540312
vt 0.901159 0.524903
vt 0.898763 0.522536
vt 0.903170 0.561368
vt 0.908728 0.544353
vt 0.903824 0.561611
vt 0.908233 0.543505
vt 0.913605 0.566705
vt 0.903836 0.581400
vt 0.903192 0.581827
vt 0.915950 0.558559
vt 0.913609 0.576078
vt 0.908871 0.598524
vt 0.908406 0.599523
vt 0.915990 0.584204
vt 0.917362 0.609678
vt 0.917530 0.608382
vt 0.920108 0.588887
vt 0.927698 0.609728
vt 0.927529 0.608402
vt 0.924875 0.588873
vt 0.928998 0.584137
vt 0.936196 0.598366
vt 0.936667 0.599360
vt 0.931353 0.575990
vt 0.941780 0.581521
vt 0.941134 0.581102
vt 0.941780 0.561058
vt 0.941126 0.561310
vt 0.931358 0.566623
vt 0.936123 0.544206
vt 0.936611 0.543354
vt 0.928990 0.558498
vt 0.927468 0.534284
vt 0.927654 0.533066
vt 0.924869 0.553800
vt 0.917399 0.534238
vt 0.917212 0.532986
vt 0.920082 0.553806
vt 0.986732 0.625632
vt 0.982992 0.626796
vt 0.985291 0.621445
vt 0.983847 0.629197
vt 0.987729 0.625261
vt 0.986827 0.631940
vt 0.983894 0.633246
vt 0.986053 0.619700
vt 0.987729 0.632947
vt 0.982411 0.618802
vt 0.981391 0.625852
vt 0.982694 0.616522
vt 0.979266 0.619231
vt 0.978713 0.616925
vt 0.980033 0.626489
vt 0.975993 0.623642
vt 0.976953 0.624834
vt 0.979278 0.628992
vt 0.975767 0.632549
vt 0.976669 0.632878
vt 0.979407 0.634485
vt 0.976498 0.643399
vt 0.977247 0.643004
vt 0.979153 0.643360
vt 0.978637 0.654404
vt 0.979541 0.647203
vt 0.977853 0.654959
vt 0.978297 0.658021
vt 0.978955 0.657824
vt 0.981433 0.642506
vt 0.983607 0.643033
vt 0.984428 0.643575
vt 0.979440 0.654980
vt 0.979470 0.657962
vt 0.979295 0.660927
vt 0.978804 0.660784
vt 0.977969 0.660940
vt 0.978345 0.664977
vt 0.978135 0.672681
vt 0.975747 0.668185
vt 0.974238 0.672862
vt 0.980609 0.670885
vt 0.976930 0.676215
vt 0.973816 0.679784
vt 0.977607 0.676578
vt 0.978605 0.673914
vt 0.980580 0.672740
vt 0.977349 0.680975
vt 0.982259 0.674017
vt 0.976555 0.681532
vt 0.979104 0.691543
vt 0.975869 0.690864
vt 0.978299 0.691556
vt 0.978509 0.702999
vt 0.980043 0.703504
vt 0.980917 0.703173
vt 0.980166 0.706085
vt 0.978645 0.705397
vt 0.980568 0.705664
vt 0.981340 0.706054
vt 0.981565 0.703421
vt 0.982255 0.693997
vt 0.981393 0.693695
vt 0.982129 0.683890
vt 0.982999 0.683723
vt 0.982634 0.677620
vt 0.983335 0.677247
vt 0.982780 0.673156
vt 0.984501 0.668101
vt 0.982260 0.664099
vt 0.986097 0.674224
vt 0.986097 0.682686
vt 0.984468 0.694094
vt 0.983032 0.703033
vt 0.982818 0.705700
vt 0.905740 0.678696
vt 0.911661 0.674885
vt 0.911661 0.682507
vt 0.905740 0.671074
vt 0.911661 0.667263
vt 0.917581 0.674885
vt 0.905740 0.663452
vt 0.911661 0.659641
vt 0.917581 0.667263
vt 0.917581 0.659641
vt 0.923502 0.667263
vt 0.923502 0.659641
vt 0.929422 0.663452
vt 0.923502 0.674885
vt 0.929422 0.671074
vt 0.923502 0.682507
vt 0.929422 0.678696
vt 0.917581 0.682507
vt 0.917581 0.690129
vt 0.923502 0.690129
vt 0.929422 0.686318
vt 0.911661 0.690129
vt 0.905740 0.686318
vt 0.917581 0.697750
vt 0.929422 0.693940
vt 0.923502 0.697750
vt 0.905740 0.693940
vt 0.911661 0.697750
vt 0.911661 0.705372
vt 0.905740 0.701561
vt 0.917581 0.705372
vt 0.923502 0.705372
vt 0.929422 0.701561
vt 0.981223 0.560867
vt 0.981222 0.580700
vt 0.962505 0.570787
vt 0.976203 0.597870
vt 0.976198 0.543681
vt 0.967516 0.607776
vt 0.967513 0.533772
vt 0.957498 0.607779
vt 0.957495 0.533774
vt 0.948820 0.597890
vt 0.948799 0.543699
vt 0.943794 0.580733
vt 0.943781 0.560901
vt 0.957389 0.608610
vt 0.948520 0.598508
vt 0.967625 0.608610
vt 0.943383 0.580977
vt 0.943369 0.560709
vt 0.976503 0.598489
vt 0.948496 0.543127
vt 0.981633 0.580943
vt 0.957385 0.532986
vt 0.981635 0.560675
vt 0.967623 0.532987
vt 0.976501 0.543108
vt 0.944622 0.664800
vt 0.944621 0.660389
vt 0.945211 0.660432
vt 0.944388 0.660423
vt 0.944399 0.664843
vt 0.944376 0.657043
vt 0.945284 0.664936
vt 0.944620 0.657035
vt 0.944400 0.654940
vt 0.945440 0.660453
vt 0.945508 0.664964
vt 0.946158 0.664756
vt 0.946029 0.660338
vt 0.945918 0.656963
vt 0.945387 0.657109
vt 0.945154 0.657103
vt 0.945331 0.655023
vt 0.945819 0.654876
vt 0.945117 0.655045
vt 0.929422 0.655723
vt 0.923502 0.651913
vt 0.929422 0.640480
vt 0.923502 0.644291
vt 0.923502 0.636669
vt 0.929422 0.632858
vt 0.923502 0.629047
vt 0.929422 0.625236
vt 0.923502 0.621425
vt 0.929422 0.617614
vt 0.923502 0.613803
vt 0.917581 0.621425
vt 0.917581 0.613803
vt 0.911661 0.613803
vt 0.911661 0.621425
vt 0.905740 0.617614
vt 0.917581 0.629047
vt 0.905740 0.625236
vt 0.917581 0.636669
vt 0.917581 0.644291
vt 0.911661 0.636669
vt 0.911661 0.644291
vt 0.905740 0.640480
vt 0.911661 0.651913
vt 0.905740 0.648102
vt 0.929422 0.648102
vt 0.917581 0.651913
vt 0.917581 0.659534
vt 0.923502 0.659534
vt 0.958237 0.695809
vt 0.969106 0.695809
vt 0.969106 0.687116
vt 0.961420 0.701956
vt 0.965922 0.701956
vt 0.958237 0.687116
vt 0.965922 0.680969
vt 0.961420 0.680969
vt 0.992030 0.587401
vt 0.992042 0.587729
vt 0.991900 0.587600
vt 0.992052 0.588114
vt 0.991763 0.587911
vt 0.991238 0.583390
vt 0.992178 0.587569
vt 0.992327 0.587855
vt 0.992866 0.583188
vt 0.991633 0.583145
vt 0.990865 0.580389
vt 0.992465 0.583044
vt 0.992757 0.580200
vt 0.992051 0.583040
vt 0.992262 0.580234
vt 0.992279 0.578452
vt 0.992784 0.578010
vt 0.991801 0.580343
vt 0.991767 0.578765
vt 0.991348 0.580284
vt 0.991235 0.578517
vt 0.990689 0.578215
vt 0.991501 0.576228
vt 0.990761 0.576099
vt 0.990348 0.575811
vt 0.990636 0.573955
vt 0.990203 0.574006
vt 0.989967 0.570756
vt 0.992236 0.575922
vt 0.992660 0.575574
vt 0.991639 0.573866
vt 0.992649 0.573753
vt 0.993087 0.573693
vt 0.992915 0.570544
vt 0.992391 0.570696
vt 0.990523 0.570835
vt 0.990126 0.567947
vt 0.991454 0.570574
vt 0.992438 0.567991
vt 0.993050 0.567758
vt 0.990751 0.568110
vt 0.991587 0.567723
vt 0.992321 0.565211
vt 0.993087 0.564858
vt 0.990514 0.565319
vt 0.989735 0.565044
vt 0.991430 0.565357
vt 0.992313 0.564512
vt 0.990502 0.564611
vt 0.992912 0.561988
vt 0.990098 0.562139
vt 0.991417 0.564564
vt 0.991503 0.561979
vt 0.992313 0.561702
vt 0.992584 0.559255
vt 0.992089 0.559085
vt 0.992427 0.556354
vt 0.990687 0.561791
vt 0.989976 0.559376
vt 0.991280 0.559258
vt 0.990466 0.559157
vt 0.990289 0.556501
vt 0.990638 0.556385
vt 0.991351 0.556273
vt 0.992069 0.556279
vt 0.992327 0.554431
vt 0.990401 0.554862
vt 0.989961 0.554828
vt 0.991117 0.554643
vt 0.991868 0.554598
vt 0.990511 0.552374
vt 0.989824 0.552209
vt 0.991260 0.552120
vt 0.992000 0.552158
vt 0.992668 0.551922
vt 0.990498 0.549738
vt 0.989889 0.549741
vt 0.990398 0.546307
vt 0.991877 0.549524
vt 0.992494 0.549462
vt 0.992175 0.546120
vt 0.991170 0.549541
vt 0.990835 0.546256
vt 0.990839 0.541417
vt 0.990644 0.541161
vt 0.990979 0.540791
vt 0.991289 0.546154
vt 0.991001 0.541605
vt 0.990994 0.541275
vt 0.991160 0.541389
vt 0.991334 0.541080
vt 0.991745 0.546141
s 1
usemtl Handle1Mtl
f 1/1/1 2/2/2 3/3/3
f 4/4/4 1/1/1 5/5/5
f 1/1/1 4/4/4 2/2/2
f 6/6/6 2/2/2 4/4/4
f 2/2/2 6/6/6 7/7/7
f 6/6/6 8/8/8 7/7/7
f 9/9/9 3/3/3 2/2/2
f 2/2/2 7/7/7 9/9/9
f 10/10/10 3/3/3 9/9/9
f 3/3/3 10/10/10 11/11/11
f 12/12/4 11/11/11 10/10/10
f 11/11/11 12/12/4 13/13/12
f 10/10/10 14/14/13 12/12/4
f 14/14/13 10/10/10 15/15/14
f 9/9/9 15/15/14 10/10/10
f 15/15/14 16/16/15 14/14/13
f 17/17/16 9/9/9 7/7/7
f 15/15/14 9/9/9 17/17/16
f 16/16/15 15/15/14 18/18/17
f 17/17/16 18/18/17 15/15/14
f 18/18/17 19/19/18 16/16/15
f 7/7/7 20/20/19 17/17/16
f 7/7/7 8/8/8 20/20/19
f 8/8/8 21/21/20 20/20/19
f 22/22/21 17/17/16 20/20/19
f 18/18/17 17/17/16 22/22/21
f 23/23/22 20/20/19 21/21/20
f 20/20/19 23/23/22 22/22/21
f 21/21/20 24/24/23 23/23/22
f 19/19/18 18/18/17 25/25/24
f 22/22/21 25/25/24 18/18/17
f 25/25/24 26/26/25 19/19/18
f 26/26/25 25/25/24 27/27/26
f 25/25/24 22/22/21 28/28/27
f 28/28/27 27/27/26 25/25/24
f 28/28/27 22/22/21 23/23/22
f 27/27/26 28/28/27 29/29/28
f 24/24/23 30/30/26 29/29/28
f 23/23/22 31/31/29 28/28/27
f 31/31/29 23/23/22 24/24/23
f 29/29/28 28/28/27 31/31/29
f 29/29/28 31/31/29 24/24/23
f 32/32/30 33/33/31 34/34/32
f 35/35/33 36/36/34 32/32/30
f 32/32/30 36/36/34 33/33/31
f 36/36/34 37/37/35 33/33/31
f 33/33/31 37/37/35 38/38/36
f 37/37/35 39/39/37 38/38/36
f 40/40/38 34/34/32 33/33/31
f 33/33/31 38/38/36 40/40/38
f 41/41/39 34/34/32 40/40/38
f 34/34/32 41/41/39 42/42/40
f 43/43/41 42/42/40 41/41/39
f 42/42/40 43/43/41 44/44/42
f 41/41/39 45/45/43 43/43/41
f 45/45/43 41/41/39 46/46/44
f 40/40/38 46/46/44 41/41/39
f 46/46/44 47/47/45 45/45/43
f 48/48/46 40/40/38 38/38/36
f 46/46/44 40/40/38 48/48/46
f 47/47/45 46/46/44 49/49/47
f 48/48/46 49/49/47 46/46/44
f 49/49/47 50/50/48 47/47/45
f 50/50/48 49/49/47 51/51/49
f 52/52/50 51/51/49 49/49/47
f 49/49/47 48/48/46 52/52/50
f 51/51/49 52/52/50 53/53/51
f 53/53/51 52/52/50 54/54/52
f 52/52/50 48/48/46 55/55/53
f 38/38/36 55/55/53 48/48/46
f 55/55/53 54/54/52 52/52/50
f 38/38/36 39/39/37 55/55/53
f 39/39/37 56/56/54 55/55/53
f 54/54/52 55/55/53 56/56/54
f 56/56/54 57/53/55 54/54/52
f 57/53/55 56/56/54 58/57/56
f 59/58/57 60/59/58 61/60/59
f 62/61/60 60/59/58 59/58/57
f 63/62/61 61/60/59 60/59/58
f 61/60/59 63/62/61 64/63/62
f 60/59/58 62/61/60 65/64/63
f 65/64/63 62/61/60 66/65/64
f 67/66/65 68/67/66 69/67/67
f 70/68/68 69/67/67 68/67/66
f 71/69/69 72/70/70 73/69/71
f 70/68/68 71/69/69 73/69/71
f 72/70/70 71/69/69 74/70/72
f 74/70/72 75/71/73 72/70/70
f 68/67/66 67/66/65 76/66/74
f 77/72/75 76/66/74 67/66/65
f 76/66/74 77/72/75 78/72/76
f 78/72/76 79/72/77 76/66/74
f 75/71/73 74/70/72 80/71/78
f 80/71/78 81/73/79 75/71/73
f 68/67/66 76/66/74 82/66/80
f 76/66/74 79/72/77 82/66/80
f 68/67/66 82/66/80 83/67/81
f 83/67/81 70/68/68 68/67/66
f 79/72/77 84/66/82 82/66/80
f 84/66/82 79/72/77 85/72/83
f 82/66/80 86/67/84 83/67/81
f 86/67/84 82/66/80 84/66/82
f 70/68/68 83/67/81 87/68/85
f 85/72/83 88/66/86 84/66/82
f 86/67/84 84/66/82 88/66/86
f 88/66/86 85/72/83 89/72/87
f 89/72/87 90/72/88 88/66/86
f 91/66/89 88/66/86 90/72/88
f 92/67/61 88/66/86 91/66/89
f 93/68/90 83/67/81 86/67/84
f 83/67/81 93/68/90 87/68/85
f 94/67/91 86/67/84 88/66/86
f 88/66/86 92/67/61 94/67/91
f 93/68/90 86/67/84 94/67/91
f 95/68/92 94/67/91 92/67/61
f 93/68/90 94/67/91 95/68/92
f 96/68/58 95/68/92 92/67/61
f 97/69/63 95/68/92 96/68/58
f 98/69/93 93/68/90 95/68/92
f 95/68/92 97/69/63 98/69/93
f 93/68/90 99/69/94 87/68/85
f 99/69/94 70/68/68 87/68/85
f 70/68/68 99/69/94 71/69/69
f 93/68/90 100/69/95 99/69/94
f 93/68/90 98/69/93 100/69/95
f 101/70/96 71/69/69 99/69/94
f 100/69/95 101/70/96 99/69/94
f 71/69/69 101/70/96 74/70/72
f 102/70/97 98/69/93 97/69/63
f 102/70/97 100/69/95 98/69/93
f 102/70/97 97/69/63 103/70/98
f 104/71/60 102/70/97 103/70/98
f 105/71/99 74/70/72 101/70/96
f 101/70/96 100/69/95 106/70/100
f 100/69/95 102/70/97 106/70/100
f 106/70/100 105/71/99 101/70/96
f 74/70/72 105/71/99 80/71/78
f 102/70/97 107/71/101 106/70/100
f 105/71/99 106/70/100 107/71/101
f 102/70/97 104/71/60 108/71/102
f 102/70/97 108/71/102 107/71/101
f 109/73/57 108/71/102 104/71/60
f 108/71/102 109/73/57 110/73/103
f 109/73/57 111/74/104 110/73/103
f 111/74/104 109/73/57 112/74/88
f 108/71/102 110/73/103 113/73/105
f 111/74/104 113/73/105 110/73/103
f 108/71/102 113/73/105 107/71/101
f 113/73/105 111/74/104 114/74/83
f 107/71/101 113/73/105 115/73/106
f 114/74/83 115/73/106 113/73/105
f 107/71/101 115/73/106 105/71/99
f 115/73/106 114/74/83 116/74/107
f 115/73/106 117/73/108 105/71/99
f 116/74/107 117/73/108 115/73/106
f 117/73/108 80/71/78 105/71/99
f 117/73/108 116/74/107 118/74/109
f 80/71/78 117/73/108 81/73/79
f 118/74/109 81/73/79 117/73/108
f 119/75/110 120/72/111 121/66/112
f 120/72/111 119/75/110 122/76/113
f 120/72/111 123/72/114 121/66/112
f 124/67/115 119/75/110 121/66/112
f 124/67/115 125/77/116 119/75/110
f 121/66/112 123/72/114 126/66/117
f 124/67/115 121/66/112 126/66/117
f 123/72/114 127/66/118 126/66/117
f 127/66/118 123/72/114 128/72/119
f 129/67/120 124/67/115 126/66/117
f 129/67/120 126/66/117 127/66/118
f 130/68/121 125/77/116 124/67/115
f 130/68/121 124/67/115 129/67/120
f 125/77/116 130/68/121 131/78/122
f 128/72/119 132/72/123 127/66/118
f 130/68/121 133/79/124 131/78/122
f 127/66/118 132/72/123 134/66/125
f 133/79/124 130/68/121 135/69/126
f 135/69/126 136/80/127 133/79/124
f 132/72/123 67/66/65 134/66/125
f 67/66/65 132/72/123 77/72/75
f 137/67/91 127/66/118 134/66/125
f 137/67/91 134/66/125 67/66/65
f 136/80/127 135/69/126 138/70/128
f 139/71/129 136/80/127 138/70/128
f 136/80/127 139/71/129 140/81/130
f 139/71/129 141/82/131 140/81/130
f 141/82/131 139/71/129 142/73/132
f 143/74/133 141/82/131 142/73/132
f 141/82/131 143/74/133 144/83/134
f 145/73/135 143/74/133 142/73/132
f 139/71/129 145/73/135 142/73/132
f 143/74/133 145/73/135 146/74/136
f 145/73/135 147/74/137 146/74/136
f 145/73/135 139/71/129 148/71/138
f 138/70/128 148/71/138 139/71/129
f 147/74/137 145/73/135 149/73/103
f 148/71/138 138/70/128 150/70/139
f 135/69/126 150/70/139 138/70/128
f 151/71/140 145/73/135 148/71/138
f 151/71/140 149/73/103 145/73/135
f 152/73/141 147/74/137 149/73/103
f 151/71/140 152/73/141 149/73/103
f 147/74/137 152/73/141 153/74/123
f 152/73/141 154/74/142 153/74/123
f 155/70/143 148/71/138 150/70/139
f 155/70/143 151/71/140 148/71/138
f 150/70/139 135/69/126 156/69/144
f 156/69/144 155/70/143 150/70/139
f 130/68/121 156/69/144 135/69/126
f 154/74/142 152/73/141 81/73/79
f 81/73/79 118/74/109 154/74/142
f 152/73/141 151/71/140 157/71/145
f 155/70/143 157/71/145 151/71/140
f 75/71/73 81/73/79 152/73/141
f 75/71/73 152/73/141 157/71/145
f 157/71/145 155/70/143 158/70/146
f 72/70/70 75/71/73 157/71/145
f 72/70/70 157/71/145 158/70/146
f 155/70/143 159/69/93 158/70/146
f 159/69/93 72/70/70 158/70/146
f 155/70/143 160/69/147 159/69/93
f 155/70/143 156/69/144 160/69/147
f 161/68/148 160/69/147 156/69/144
f 156/69/144 130/68/121 161/68/148
f 161/68/148 130/68/121 129/67/120
f 160/69/147 161/68/148 162/68/149
f 161/68/148 129/67/120 163/67/150
f 161/68/148 163/67/150 162/68/149
f 127/66/118 163/67/150 129/67/120
f 127/66/118 137/67/91 163/67/150
f 162/68/149 163/67/150 137/67/91
f 137/67/91 164/68/151 162/68/149
f 159/69/93 162/68/149 164/68/151
f 164/68/151 137/67/91 69/67/67
f 69/67/67 137/67/91 67/66/65
f 164/68/151 73/69/71 159/69/93
f 72/70/70 159/69/93 73/69/71
f 164/68/151 69/67/67 165/68/152
f 73/69/71 164/68/151 165/68/152
f 69/67/67 70/68/68 165/68/152
f 70/68/68 73/69/71 165/68/152
f 166/84/153 167/85/154 168/84/155
f 169/86/156 170/87/157 171/88/158
f 172/89/159 173/90/160 169/86/156
f 173/90/160 170/87/157 169/86/156
f 173/90/160 172/89/159 174/91/161
f 172/89/159 175/92/162 174/91/161
f 174/91/161 175/92/162 176/93/163
f 174/91/161 177/94/164 173/90/160
f 177/94/164 170/87/157 173/90/160
f 174/91/161 176/93/163 178/95/165
f 177/94/164 174/91/161 178/95/165
f 178/95/165 176/93/163 179/96/166
f 180/97/167 170/87/157 177/94/164
f 178/95/165 180/97/167 177/94/164
f 181/98/168 170/87/157 180/97/167
f 182/99/169 170/87/157 181/98/168
f 183/100/170 182/99/169 181/98/168
f 184/101/171 181/98/168 180/97/167
f 181/98/168 184/101/171 183/100/170
f 180/97/167 178/95/165 184/101/171
f 179/96/166 183/100/170 184/101/171
f 178/95/165 179/96/166 184/101/171
f 185/102/172 186/103/153 187/103/173
f 188/68/174 189/69/175 190/69/147
f 179/96/166 191/104/176 192/105/177
f 176/93/163 191/104/176 179/96/166
f 176/93/163 193/106/178 191/104/176
f 179/96/166 192/105/177 194/107/179
f 195/108/180 194/107/179 192/105/177
f 175/92/162 193/106/178 176/93/163
f 175/92/162 196/109/181 193/106/178
f 194/107/179 195/108/180 197/110/182
f 198/111/183 197/110/182 195/108/180
f 199/112/184 196/109/181 175/92/162
f 196/109/181 199/112/184 200/113/185
f 197/110/182 198/111/183 201/114/186
f 202/115/187 200/113/185 199/112/184
f 200/113/185 202/115/187 203/116/188
f 175/92/162 172/89/159 199/112/184
f 172/89/159 202/115/187 199/112/184
f 202/115/187 204/117/189 203/116/188
f 198/111/183 205/118/190 201/114/186
f 205/118/190 198/111/183 206/119/191
f 207/120/192 201/114/186 205/118/190
f 207/120/192 197/110/182 201/114/186
f 206/119/191 208/121/193 205/118/190
f 208/121/193 206/119/191 209/122/194
f 207/120/192 205/118/190 210/123/195
f 208/121/193 210/123/195 205/118/190
f 197/110/182 207/120/192 211/124/196
f 211/124/196 194/107/179 197/110/182
f 212/125/197 207/120/192 210/123/195
f 212/125/197 211/124/196 207/120/192
f 194/107/179 211/124/196 183/100/170
f 183/100/170 179/96/166 194/107/179
f 211/124/196 212/125/197 182/99/169
f 182/99/169 183/100/170 211/124/196
f 212/125/197 210/123/195 213/126/198
f 212/125/197 170/87/157 182/99/169
f 213/126/198 170/87/157 212/125/197
f 213/126/198 210/123/195 214/127/199
f 214/127/199 210/123/195 208/121/193
f 214/127/199 215/128/200 213/126/198
f 215/128/200 170/87/157 213/126/198
f 208/121/193 216/129/201 214/127/199
f 214/127/199 216/129/201 215/128/200
f 216/129/201 208/121/193 217/130/202
f 209/122/194 217/130/202 208/121/193
f 217/130/202 209/122/194 218/131/203
f 216/129/201 219/132/204 215/128/200
f 219/132/204 170/87/157 215/128/200
f 217/130/202 220/133/205 216/129/201
f 220/133/205 219/132/204 216/129/201
f 218/131/203 221/134/206 217/130/202
f 220/133/205 217/130/202 221/134/206
f 221/134/206 218/131/203 204/117/189
f 204/117/189 202/115/187 221/134/206
f 222/135/207 221/134/206 202/115/187
f 221/134/206 222/135/207 220/133/205
f 220/133/205 223/136/208 219/132/204
f 222/135/207 223/136/208 220/133/205
f 223/136/208 170/87/157 219/132/204
f 202/115/187 172/89/159 222/135/207
f 223/136/208 222/135/207 171/88/158
f 171/88/158 170/87/157 223/136/208
f 222/135/207 169/86/156 171/88/158
f 169/86/156 222/135/207 172/89/159
f 224/137/209 225/138/210 226/139/211
f 226/139/211 225/138/210 227/140/212
f 228/141/213 229/142/214 224/137/209
f 226/139/211 228/141/213 224/137/209
f 230/143/215 231/144/216 229/142/214
f 230/143/215 229/142/214 228/141/213
f 231/144/216 230/143/215 232/145/217
f 227/140/212 233/146/218 226/139/211
f 228/141/213 226/139/211 233/146/218
f 233/146/218 227/140/212 234/147/217
f 235/148/219 230/143/215 228/141/213
f 235/148/219 228/141/213 233/146/218
f 236/149/220 232/145/217 230/143/215
f 230/143/215 235/148/219 236/149/220
f 232/145/217 236/149/220 237/150/221
f 238/151/222 233/146/218 234/147/217
f 233/146/218 238/151/222 235/148/219
f 238/151/222 234/147/217 239/152/223
f 240/153/224 237/150/221 236/149/220
f 235/148/219 241/154/225 236/149/220
f 241/154/225 235/148/219 238/151/222
f 240/153/224 236/149/220 241/154/225
f 237/150/221 240/153/224 242/155/226
f 243/156/227 242/155/226 240/153/224
f 242/155/226 243/156/227 244/157/228
f 245/158/229 244/157/228 243/156/227
f 246/159/230 244/157/228 245/158/229
f 247/160/231 246/159/230 245/158/229
f 246/159/230 247/160/231 248/161/232
f 249/162/233 248/161/232 247/160/231
f 247/160/231 250/163/234 249/162/233
f 251/164/235 249/162/233 250/163/234
f 250/163/234 252/165/236 251/164/235
f 252/165/236 253/166/237 251/164/235
f 253/166/237 252/165/236 254/167/238
f 254/167/238 255/168/239 253/166/237
f 255/168/239 254/167/238 256/169/240
f 256/169/240 257/170/241 255/168/239
f 256/169/240 258/171/242 257/170/241
f 259/172/243 257/170/241 258/171/242
f 256/169/240 254/167/238 260/173/244
f 258/171/242 256/169/240 261/174/245
f 260/173/244 261/174/245 256/169/240
f 262/175/246 260/173/244 254/167/238
f 254/167/238 263/165/247 262/175/246
f 261/174/245 260/173/244 264/176/248
f 265/177/249 262/175/246 263/165/247
f 263/165/247 266/163/250 265/177/249
f 265/177/249 267/178/251 262/175/246
f 267/178/251 265/177/249 268/179/252
f 267/178/251 269/180/253 262/175/246
f 260/173/244 262/175/246 269/180/253
f 269/180/253 264/176/248 260/173/244
f 270/181/254 265/177/249 266/163/250
f 270/181/254 268/179/252 265/177/249
f 270/181/254 266/163/250 271/160/255
f 268/179/252 270/181/254 272/182/256
f 273/158/257 270/181/254 271/160/255
f 270/181/254 274/183/258 272/182/256
f 275/184/259 270/181/254 273/158/257
f 274/183/258 270/181/254 275/184/259
f 276/156/260 275/184/259 273/158/257
f 275/184/259 277/185/261 274/183/258
f 278/186/262 275/184/259 276/156/260
f 277/185/261 275/184/259 278/186/262
f 276/156/260 240/153/224 278/186/262
f 278/186/262 240/153/224 241/154/225
f 279/187/263 277/185/261 278/186/262
f 278/186/262 241/154/225 279/187/263
f 238/151/222 279/187/263 241/154/225
f 239/152/223 279/187/263 238/151/222
f 279/187/263 239/152/223 280/188/264
f 280/188/264 281/185/265 279/187/263
f 281/185/265 280/188/264 282/189/266
f 282/189/266 283/183/267 281/185/265
f 283/183/267 282/189/266 284/190/268
f 284/190/268 285/182/269 283/183/267
f 285/182/269 284/190/268 286/191/270
f 287/192/271 285/182/269 286/191/270
f 285/182/269 287/192/271 288/179/272
f 289/193/273 288/179/272 287/192/271
f 288/179/272 289/193/273 290/178/274
f 291/194/275 290/178/274 289/193/273
f 290/178/274 291/194/275 269/180/253
f 292/195/276 269/180/253 291/194/275
f 269/180/253 292/195/276 264/176/248
f 293/196/277 264/176/248 292/195/276
f 264/176/248 293/196/277 294/197/278
f 295/198/279 294/197/278 293/196/277
f 294/197/278 261/174/245 264/176/248
f 294/197/278 295/198/279 296/199/280
f 297/200/281 296/199/280 295/198/279
f 261/174/245 294/197/278 298/201/282
f 261/174/245 298/201/282 258/171/242
f 299/202/283 294/197/278 296/199/280
f 299/202/283 298/201/282 294/197/278
f 300/203/284 258/171/242 298/201/282
f 298/201/282 299/202/283 300/203/284
f 258/171/242 300/203/284 259/172/243
f 301/204/285 259/172/243 300/203/284
f 301/204/285 300/203/284 299/202/283
f 259/172/243 301/204/285 302/205/281
f 303/206/286 299/202/283 296/199/280
f 299/202/283 303/206/286 301/204/285
f 296/199/280 297/200/281 304/207/287
f 296/199/280 304/207/287 303/206/286
f 305/208/288 304/207/287 297/200/281
f 306/209/289 302/205/281 301/204/285
f 306/209/289 301/204/285 303/206/286
f 302/205/281 306/209/289 307/210/290
f 306/209/289 308/211/291 307/210/290
f 309/212/292 307/210/290 308/211/291
f 308/211/291 310/213/293 309/212/292
f 310/213/293 308/211/291 311/214/294
f 303/206/286 312/215/295 306/209/289
f 312/215/295 308/211/291 306/209/289
f 312/215/295 303/206/286 304/207/287
f 313/216/296 311/214/294 308/211/291
f 308/211/291 312/215/295 313/216/296
f 311/214/294 313/216/296 314/217/297
f 313/216/296 315/218/298 314/217/297
f 304/207/287 316/219/299 312/215/295
f 316/219/299 313/216/296 312/215/295
f 304/207/287 305/208/288 316/219/299
f 317/220/300 316/219/299 305/208/288
f 313/216/296 316/219/299 318/221/301
f 318/221/301 316/219/299 317/220/300
f 315/218/298 313/216/296 318/221/301
f 319/222/302 318/221/301 317/220/300
f 315/218/298 318/221/301 319/222/302
f 320/223/303 321/224/304 322/225/305
f 323/226/306 322/225/305 321/224/304
f 322/225/305 323/226/306 324/227/307
f 325/228/308 322/225/305 324/227/307
f 326/229/309 323/226/306 321/224/304
f 320/223/303 326/229/309 321/224/304
f 323/226/306 326/229/309 327/230/310
f 326/229/309 328/231/311 327/230/310
f 322/225/305 325/228/308 329/232/312
f 320/223/303 322/225/305 329/232/312
f 330/233/313 329/232/312 325/228/308
f 320/223/303 329/232/312 331/234/314
f 329/232/312 330/233/313 331/234/314
f 320/223/303 332/235/315 326/229/309
f 320/223/303 331/234/314 332/235/315
f 328/231/311 326/229/309 332/235/315
f 330/233/313 332/235/315 331/234/314
f 332/235/315 330/233/313 328/231/311
f 330/233/313 333/236/316 328/231/311
f 333/236/316 334/237/317 328/231/311
f 333/236/316 330/233/313 335/238/318
f 334/237/317 333/236/316 336/239/319
f 336/239/319 337/240/320 334/237/317
f 335/238/318 338/241/321 333/236/316
f 333/236/316 338/241/321 336/239/319
f 330/233/313 339/242/322 335/238/318
f 339/242/322 338/241/321 335/238/318
f 339/242/322 330/233/313 340/243/323
f 341/244/324 339/242/322 340/243/323
f 337/240/320 336/239/319 342/245/325
f 336/239/319 338/241/321 342/245/325
f 337/240/320 343/246/326 341/244/324
f 339/242/322 341/244/324 343/246/326
f 343/246/326 337/240/320 342/245/325
f 343/246/326 338/241/321 339/242/322
f 342/245/325 338/241/321 343/246/326
f 344/247/327 345/248/328 346/249/329
f 347/250/330 345/248/328 348/251/331
f 349/252/332 348/251/331 345/248/328
f 345/248/328 347/250/330 350/253/333
f 351/254/334 350/253/333 347/250/330
f 350/253/333 346/249/329 345/248/328
f 345/248/328 352/255/335 349/252/332
f 345/248/328 344/247/327 352/255/335
f 353/256/336 349/252/332 352/255/335
f 346/249/329 350/253/333 354/257/337
f 352/255/335 355/258/338 353/256/336
f 356/259/339 353/256/336 355/258/338
f 357/260/340 352/255/335 344/247/327
f 352/255/335 357/260/340 355/258/338
f 356/259/339 355/258/338 358/261/341
f 346/249/329 354/257/337 359/262/342
f 344/247/327 346/249/329 360/263/343
f 359/262/342 360/263/343 346/249/329
f 361/264/344 357/260/340 344/247/327
f 344/247/327 360/263/343 361/264/344
f 362/265/345 355/258/338 357/260/340
f 355/258/338 362/265/345 358/261/341
f 363/266/346 356/259/339 358/261/341
f 362/265/345 363/266/346 358/261/341
f 356/259/339 363/266/346 364/267/347
f 365/268/348 364/267/347 363/266/346
f 364/267/347 365/268/348 366/269/349
f 365/268/348 367/270/350 366/269/349
f 368/271/351 365/268/348 363/266/346
f 363/266/346 362/265/345 368/271/351
f 367/270/350 365/268/348 369/272/352
f 369/272/352 370/273/353 367/270/350
f 365/268/348 368/271/351 371/274/354
f 371/274/354 369/272/352 365/268/348
f 369/272/352 372/275/355 370/273/353
f 372/275/355 373/276/356 370/273/353
f 372/275/355 374/277/357 373/276/356
f 372/275/355 375/278/358 374/277/357
f 369/272/352 376/279/359 372/275/355
f 375/278/358 372/275/355 376/279/359
f 369/272/352 371/274/354 377/280/360
f 376/279/359 369/272/352 377/280/360
f 378/281/361 377/280/360 371/274/354
f 368/271/351 378/281/361 371/274/354
f 376/279/359 377/280/360 379/282/362
f 377/280/360 378/281/361 379/282/362
f 375/278/358 376/279/359 380/283/363
f 376/279/359 379/282/362 380/283/363
f 380/283/363 381/284/364 375/278/358
f 380/283/363 382/285/365 381/284/364
f 379/282/362 383/286/366 380/283/363
f 382/285/365 380/283/363 383/286/366
f 384/287/367 382/285/365 383/286/366
f 384/287/367 385/288/368 382/285/365
f 383/286/366 386/289/56 384/287/367
f 383/286/366 379/282/362 387/290/369
f 386/289/56 383/286/366 387/290/369
f 378/281/361 387/290/369 379/282/362
f 388/291/370 386/289/56 387/290/369
f 387/290/369 378/281/361 388/291/370
f 386/289/56 388/291/370 389/292/371
f 390/293/372 389/292/371 388/291/370
f 378/281/361 390/293/372 388/291/370
f 389/292/371 390/293/372 391/294/373
f 390/293/372 378/281/361 392/295/374
f 378/281/361 368/271/351 392/295/374
f 393/296/375 391/294/373 390/293/372
f 393/296/375 390/293/372 392/295/374
f 362/265/345 392/295/374 368/271/351
f 391/294/373 393/296/375 394/297/376
f 392/295/374 362/265/345 395/298/377
f 392/295/374 395/298/377 393/296/375
f 362/265/345 396/299/378 395/298/377
f 396/299/378 393/296/375 395/298/377
f 362/265/345 357/260/340 396/299/378
f 397/300/379 394/297/376 393/296/375
f 393/296/375 396/299/378 397/300/379
f 357/260/340 361/264/344 396/299/378
f 361/264/344 397/300/379 396/299/378
f 394/297/376 397/300/379 398/301/380
f 397/300/379 399/302/381 398/301/380
f 397/300/379 361/264/344 400/303/382
f 397/300/379 400/303/382 399/302/381
f 360/263/343 400/303/382 361/264/344
f 401/304/383 399/302/381 400/303/382
f 400/303/382 402/305/384 401/304/383
f 400/303/382 360/263/343 402/305/384
f 403/306/385 401/304/383 402/305/384
f 404/307/386 402/305/384 360/263/343
f 402/305/384 404/307/386 403/306/385
f 360/263/343 359/262/342 404/307/386
f 405/308/387 403/306/385 404/307/386
f 405/308/387 404/307/386 359/262/342
f 403/306/385 405/308/387 406/309/388
f 407/310/389 406/309/388 405/308/387
f 406/309/388 407/310/389 408/311/339
f 409/312/390 408/311/339 407/310/389
f 408/311/339 409/312/390 410/313/391
f 411/314/392 407/310/389 405/308/387
f 359/262/342 411/314/392 405/308/387
f 412/315/158 409/312/390 407/310/389
f 411/314/392 412/315/158 407/310/389
f 412/315/158 413/316/156 409/312/390
f 412/315/158 414/317/393 413/316/156
f 411/314/392 415/318/394 412/315/158
f 414/317/393 412/315/158 415/318/394
f 359/262/342 416/319/395 411/314/392
f 415/318/394 411/314/392 416/319/395
f 416/319/395 359/262/342 354/257/337
f 416/319/395 354/257/337 350/253/333
f 350/253/333 417/320/396 416/319/395
f 417/320/396 415/318/394 416/319/395
f 350/253/333 351/254/334 417/320/396
f 418/321/397 417/320/396 351/254/334
f 415/318/394 417/320/396 419/322/398
f 414/317/393 415/318/394 419/322/398
f 417/320/396 418/321/397 419/322/398
f 414/317/393 419/322/398 420/323/399
f 420/323/399 419/322/398 418/321/397
f 420/323/399 418/321/397 421/324/380
f 422/325/400 423/326/401 424/327/402
f 423/326/401 422/325/400 425/328/403
f 423/326/401 426/329/404 424/327/402
f 427/330/405 422/325/400 424/327/402
f 426/329/404 427/330/405 424/327/402
f 428/331/406 422/325/400 427/330/405
f 426/329/404 423/326/401 429/332/177
f 427/330/405 426/329/404 430/333/407
f 431/334/408 428/331/406 427/330/405
f 430/333/407 431/334/408 427/330/405
f 432/335/409 428/331/406 431/334/408
f 433/336/410 431/334/408 430/333/407
f 431/334/408 434/337/411 432/335/409
f 431/334/408 433/336/410 435/338/412
f 434/337/411 431/334/408 435/338/412
f 433/336/410 436/339/185 435/338/412
f 435/338/412 437/340/413 434/337/411
f 438/341/414 435/338/412 436/339/185
f 437/340/413 435/338/412 438/341/414
f 438/341/414 436/339/185 439/342/415
f 440/343/416 438/341/414 439/342/415
f 441/344/417 437/340/413 438/341/414
f 438/341/414 440/343/416 441/344/417
f 437/340/413 441/344/417 442/345/418
f 443/346/419 441/344/417 440/343/416
f 441/344/417 444/347/420 442/345/418
f 444/347/420 441/344/417 445/348/421
f 441/344/417 443/346/419 445/348/421
f 445/348/421 446/349/422 444/347/420
f 445/348/421 443/346/419 447/350/423
f 446/349/422 445/348/421 447/350/423
f 443/346/419 448/351/194 447/350/423
f 447/350/423 449/352/424 446/349/422
f 449/352/424 447/350/423 448/351/194
f 450/353/425 446/349/422 449/352/424
f 449/352/424 448/351/194 451/354/426
f 452/355/427 450/353/425 449/352/424
f 451/354/426 452/355/427 449/352/424
f 453/356/428 450/353/425 452/355/427
f 452/355/427 451/354/426 454/357/429
f 455/358/430 453/356/428 452/355/427
f 454/357/429 455/358/430 452/355/427
f 453/356/428 455/358/430 456/359/431
f 457/360/180 455/358/430 454/357/429
f 455/358/430 425/328/403 456/359/431
f 429/332/177 455/358/430 457/360/180
f 425/328/403 455/358/430 423/326/401
f 455/358/430 429/332/177 423/326/401
f 458/361/432 459/362/433 460/363/434
f 459/362/433 458/361/432 461/364/435
f 460/363/434 462/365/436 458/361/432
f 463/366/437 461/364/435 458/361/432
f 463/366/437 458/361/432 462/365/436
f 461/364/435 463/366/437 464/367/438
f 462/365/436 460/363/434 465/368/439
f 462/365/436 466/369/440 463/366/437
f 459/362/433 467/370/441 460/363/434
f 467/370/441 465/368/439 460/363/434
f 468/371/442 467/370/441 459/362/433
f 465/368/439 467/370/441 469/372/443
f 468/371/442 470/373/444 467/370/441
f 470/373/444 469/372/443 467/370/441
f 469/372/443 470/373/444 471/374/445
f 470/373/444 468/371/442 472/375/446
f 473/376/447 471/374/445 470/373/444
f 474/377/448 470/373/444 472/375/446
f 473/376/447 470/373/444 475/377/449
f 472/375/446 476/378/450 474/377/448
f 475/377/449 477/379/451 473/376/447
f 478/380/452 474/377/448 476/378/450
f 477/379/451 475/377/449 479/380/453
f 478/380/452 476/378/450 480/381/454
f 479/380/453 481/382/455 477/379/451
f 482/383/456 478/380/452 480/381/454
f 481/382/455 479/380/453 483/383/457
f 482/383/456 480/381/454 484/384/458
f 484/384/458 485/385/459 482/383/456
f 485/385/459 484/384/458 486/386/460
f 483/383/457 487/385/461 481/382/455
f 488/387/462 481/382/455 487/385/461
f 487/385/461 489/388/463 488/387/462
f 489/388/463 487/385/461 490/389/464
f 491/386/465 492/390/466 487/385/461
f 493/391/467 487/385/461 492/390/466
f 464/367/438 493/391/467 492/390/466
f 463/366/437 493/391/467 464/367/438
f 466/369/440 493/391/467 463/366/437
f 493/391/467 466/369/440 494/392/468
f 495/393/469 493/391/467 494/392/468
f 493/391/467 495/393/469 487/385/461
f 490/389/464 487/385/461 495/393/469
f 490/389/464 495/393/469 496/394/470
f 497/395/471 490/389/464 496/394/470
f 490/389/464 497/395/471 498/396/472
f 498/396/472 499/388/473 490/389/464
f 499/388/473 498/396/472 500/397/474
f 501/398/475 502/399/476 503/400/477
f 503/400/477 502/399/476 504/401/478
f 502/399/476 501/398/475 505/402/479
f 504/401/478 502/399/476 506/403/480
f 507/404/481 504/401/478 506/403/480
f 502/399/476 508/405/482 506/403/480
f 508/405/482 502/399/476 509/406/483
f 502/399/476 510/407/484 509/406/483
f 510/407/484 502/399/476 505/402/479
f 511/408/485 506/403/480 508/405/482
f 512/409/486 510/407/484 505/402/479
f 506/403/480 511/408/485 513/410/487
f 513/410/487 507/404/481 506/403/480
f 514/411/488 513/410/487 511/408/485
f 513/410/487 515/412/489 507/404/481
f 515/412/489 513/410/487 516/413/490
f 513/410/487 514/411/488 516/413/490
f 516/413/490 517/414/491 515/412/489
f 514/411/488 518/415/492 516/413/490
f 517/414/491 516/413/490 518/415/492
f 514/411/488 519/416/460 518/415/492
f 520/417/493 517/414/491 518/415/492
f 517/414/491 520/417/493 521/418/494
f 518/415/492 522/419/495 520/417/493
f 522/419/495 518/415/492 519/416/460
f 519/416/460 523/420/496 522/419/495
f 523/420/496 519/416/460 524/421/497
f 519/416/460 525/422/498 524/421/497
f 525/422/498 519/416/460 526/423/458
f 526/423/458 527/424/454 525/422/498
f 525/422/498 527/424/454 528/425/499
f 527/424/454 529/426/450 528/425/499
f 530/427/500 528/425/499 529/426/450
f 512/409/486 530/427/500 529/426/450
f 530/427/500 512/409/486 531/428/501
f 505/402/479 531/428/501 512/409/486
f 505/402/479 532/429/502 531/428/501
f 532/429/502 505/402/479 533/430/503
f 534/431/504 531/428/501 532/429/502
f 531/428/501 534/431/504 535/427/505
f 536/432/451 535/427/505 534/431/504
f 535/427/505 536/432/451 537/425/506
f 538/433/507 537/425/506 536/432/451
f 537/425/506 538/433/507 539/422/508
f 540/434/462 539/422/508 538/433/507
f 539/422/508 540/434/462 541/421/509
f 540/434/462 542/420/510 541/421/509
f 542/420/510 540/434/462 543/435/511
f 544/436/512 545/437/513 546/438/514
f 547/439/512 548/440/515 545/437/513
f 548/440/515 549/441/516 545/437/513
f 549/441/516 546/438/514 545/437/513
f 550/442/512 551/443/517 548/440/515
f 551/443/517 552/444/518 548/440/515
f 549/441/516 548/440/515 552/444/518
f 552/444/518 551/443/517 553/445/519
f 553/445/519 554/446/520 552/444/518
f 554/446/520 549/441/516 552/444/518
f 554/446/520 553/445/519 555/447/521
f 555/447/521 556/448/522 554/446/520
f 549/441/516 554/446/520 557/449/523
f 554/446/520 558/450/522 557/449/523
f 559/451/524 549/441/516 557/449/523
f 557/449/523 560/452/522 559/451/524
f 549/441/516 559/451/524 561/453/525
f 546/438/514 549/441/516 561/453/525
f 559/451/524 562/454/526 561/453/525
f 562/454/526 546/438/514 561/453/525
f 562/454/526 559/451/524 563/455/527
f 559/451/524 564/456/522 563/455/527
f 546/438/514 562/454/526 565/457/528
f 566/458/512 546/438/514 565/457/528
f 563/455/527 567/459/529 562/454/526
f 567/459/529 565/457/528 562/454/526
f 563/455/527 568/460/530 569/461/531
f 567/459/529 563/455/527 569/461/531
f 570/462/512 565/457/528 571/463/532
f 565/457/528 567/459/529 571/463/532
f 567/459/529 572/464/533 571/463/532
f 573/465/512 571/463/532 572/464/533
f 572/464/533 567/459/529 574/466/519
f 567/459/529 575/467/534 574/466/519
f 575/467/534 567/459/529 569/461/531
f 569/461/531 576/468/535 575/467/534
f 577/469/536 578/470/537 579/471/538
f 578/470/537 580/472/539 579/471/538
f 581/473/540 577/469/536 579/471/538
f 580/472/539 582/474/541 579/471/538
f 583/475/542 581/473/540 579/471/538
f 582/474/541 584/476/543 579/471/538
f 585/477/544 583/475/542 579/471/538
f 584/476/543 586/478/545 579/471/538
f 587/479/546 585/477/544 579/471/538
f 586/478/545 588/480/547 579/471/538
f 589/481/548 587/479/546 579/471/538
f 588/480/547 589/481/548 579/471/538
f 590/478/549 591/482/550 592/483/551
f 591/482/550 590/478/549 593/476/552
f 592/483/551 594/480/553 590/478/549
f 593/476/552 595/484/554 591/482/550
f 594/480/553 592/483/551 596/485/555
f 595/484/554 593/476/552 597/474/556
f 596/485/555 598/481/557 594/480/553
f 599/472/558 595/484/554 597/474/556
f 598/481/557 596/485/555 600/486/559
f 601/487/560 595/484/554 599/472/558
f 600/486/559 602/479/546 598/481/557
f 599/472/558 603/470/561 601/487/560
f 602/479/546 600/486/559 604/488/562
f 605/489/563 601/487/560 603/470/561
f 604/488/562 606/490/564 602/479/546
f 603/470/561 607/469/565 605/489/563
f 608/477/566 602/479/546 606/490/564
f 605/489/563 607/469/565 609/491/567
f 606/490/564 610/492/568 608/477/566
f 611/473/569 609/491/567 607/469/565
f 608/477/566 610/492/568 612/475/570
f 610/492/568 611/473/569 612/475/570
f 609/491/567 611/473/569 613/493/571
f 611/473/569 610/492/568 613/493/571
f 614/494/572 615/495/573 616/496/574
f 614/494/572 617/497/575 615/495/573
f 617/497/575 614/494/572 618/498/576
f 619/499/577 615/495/573 617/497/575
f 614/494/572 616/496/574 620/500/578
f 615/495/573 619/499/577 621/501/579
f 621/501/579 616/496/574 615/495/573
f 619/499/577 622/502/580 621/501/579
f 620/500/578 616/496/574 623/503/581
f 620/500/578 623/503/581 624/504/582
f 623/503/581 625/505/583 624/504/582
f 625/505/583 623/503/581 626/506/575
f 623/503/581 627/507/584 626/506/575
f 225/138/210 621/501/579 622/502/580
f 616/496/574 628/508/585 623/503/581
f 627/507/584 623/503/581 628/508/585
f 622/502/580 227/140/212 225/138/210
f 616/496/574 621/501/579 629/509/586
f 616/496/574 629/509/586 628/508/585
f 628/508/585 630/510/587 627/507/584
f 629/509/586 630/510/587 628/508/585
f 627/507/584 630/510/587 631/511/588
f 621/501/579 632/512/589 629/509/586
f 630/510/587 629/509/586 632/512/589
f 632/512/589 621/501/579 225/138/210
f 630/510/587 229/142/214 631/511/588
f 632/512/589 229/142/214 630/510/587
f 631/511/588 229/142/214 231/144/216
f 225/138/210 224/137/209 632/512/589
f 229/142/214 632/512/589 224/137/209
f 633/513/590 634/514/591 635/513/592
f 636/515/593 637/516/594 638/517/595
f 638/517/595 639/518/590 640/518/593
f 639/518/590 638/517/595 641/519/596
f 642/520/597 641/519/596 643/521/598
f 644/522/590 643/521/598 645/523/599
f 646/524/600 645/523/599 643/521/598
f 641/519/596 646/524/600 643/521/598
f 645/523/599 646/524/600 647/525/601
f 646/524/600 648/526/602 647/525/601
f 648/526/602 646/524/600 649/527/603
f 649/527/603 650/528/155 648/526/602
f 646/524/600 641/519/596 651/529/604
f 638/517/595 651/529/604 641/519/596
f 646/524/600 652/102/605 649/527/603
f 652/102/605 646/524/600 651/529/604
f 652/102/605 653/530/606 649/527/603
f 651/529/604 638/517/595 654/531/607
f 654/531/607 652/102/605 651/529/604
f 638/517/595 655/532/608 654/531/607
f 652/102/605 654/531/607 656/533/609
f 655/532/608 656/533/609 654/531/607
f 652/102/605 656/533/609 657/103/153
f 655/532/608 638/517/595 637/516/594
f 658/534/610 659/535/611 656/533/609
f 656/533/609 655/532/608 658/534/610
f 655/532/608 660/536/612 658/534/610
f 660/536/612 661/537/153 658/534/610
f 662/514/613 655/532/608 637/516/594
f 663/538/592 662/514/613 637/516/594
f 660/536/612 655/532/608 664/539/614
f 655/532/608 662/514/613 664/539/614
f 664/539/614 665/85/154 660/536/612
f 665/85/154 666/84/153 660/536/612
f 665/85/154 664/539/614 667/540/601
f 667/540/601 664/539/614 662/514/613
f 667/540/601 662/514/613 668/541/615
f 662/514/613 669/513/590 668/541/615
f 670/542/538 671/543/538 672/544/538
f 671/543/538 670/542/538 673/545/538
f 671/543/538 673/545/538 674/546/538
f 670/542/538 672/544/538 675/547/538
f 676/548/538 675/547/538 672/544/538
f 675/547/538 676/548/538 677/549/538
f 678/550/616 679/551/594 680/552/617
f 681/553/608 680/552/617 679/551/594
f 680/552/617 681/553/608 682/554/618
f 683/555/619 680/552/617 682/554/618
f 684/556/620 681/553/608 679/551/594
f 678/550/616 684/556/620 679/551/594
f 681/553/608 684/556/620 685/557/621
f 686/558/622 685/557/621 684/556/620
f 680/552/617 683/555/619 687/559/623
f 687/559/623 678/550/616 680/552/617
f 688/560/624 687/559/623 683/555/619
f 686/558/622 684/556/620 689/561/625
f 689/561/625 684/556/620 678/550/616
f 690/562/626 686/558/622 689/561/625
f 678/550/616 687/559/623 691/563/627
f 689/561/625 678/550/616 691/563/627
f 690/562/626 689/561/625 692/564/628
f 691/563/627 692/564/628 689/561/625
f 693/565/629 690/562/626 692/564/628
f 690/562/626 693/565/629 694/566/630
f 692/564/628 691/563/627 695/567/631
f 687/559/623 695/567/631 691/563/627
f 692/564/628 696/568/632 693/565/629
f 696/568/632 692/564/628 695/567/631
f 695/567/631 687/559/623 697/569/633
f 697/569/633 696/568/632 695/567/631
f 687/559/623 688/560/624 697/569/633
f 688/560/624 698/570/634 697/569/633
f 696/568/632 697/569/633 698/570/634
f 688/560/624 699/571/635 698/570/634
f 700/572/636 693/565/629 696/568/632
f 698/570/634 700/572/636 696/568/632
f 699/571/635 701/573/637 698/570/634
f 700/572/636 698/570/634 701/573/637
f 701/573/637 699/571/635 702/574/638
f 702/574/638 703/575/639 701/573/637
f 703/575/639 700/572/636 701/573/637
f 703/575/639 702/574/638 704/576/640
f 704/576/640 705/577/641 703/575/639
f 693/565/629 700/572/636 706/578/642
f 693/565/629 706/578/642 694/566/630
f 707/579/643 694/566/630 706/578/642
f 706/578/642 700/572/636 708/580/644
f 703/575/639 708/580/644 700/572/636
f 707/579/643 706/578/642 709/581/645
f 708/580/644 709/581/645 706/578/642
f 710/582/646 707/579/643 709/581/645
f 709/581/645 711/583/647 710/582/646
f 708/580/644 712/584/648 709/581/645
f 711/583/647 709/581/645 712/584/648
f 703/575/639 713/585/649 708/580/644
f 703/575/639 705/577/641 713/585/649
f 705/577/641 714/586/650 713/585/649
f 708/580/644 713/585/649 715/587/651
f 712/584/648 708/580/644 715/587/651
f 716/588/652 711/583/647 712/584/648
f 715/587/651 716/588/652 712/584/648
f 711/583/647 716/588/652 717/589/653
f 713/585/649 718/590/654 715/587/651
f 713/585/649 714/586/650 718/590/654
f 716/588/652 715/587/651 719/591/655
f 715/587/651 718/590/654 719/591/655
f 720/592/656 717/589/653 716/588/652
f 719/591/655 720/592/656 716/588/652
f 717/589/653 720/592/656 721/593/657
f 714/586/650 722/594/658 718/590/654
f 718/590/654 722/594/658 719/591/655
f 722/594/658 714/586/650 723/595/659
f 720/592/656 719/591/655 724/596/660
f 719/591/655 722/594/658 724/596/660
f 720/592/656 724/596/660 725/597/661
f 720/592/656 725/597/661 726/593/662
f 727/598/663 724/596/660 722/594/658
f 728/595/664 727/598/663 722/594/658
f 725/597/661 729/599/665 726/593/662
f 730/600/666 727/598/663 728/595/664
f 731/601/667 725/597/661 724/596/660
f 727/598/663 731/601/667 724/596/660
f 732/602/668 725/597/661 731/601/667
f 727/598/663 732/602/668 731/601/667
f 729/599/665 725/597/661 733/603/669
f 733/603/669 725/597/661 732/602/668
f 733/603/669 734/604/670 729/599/665
f 734/604/670 733/603/669 735/605/671
f 732/602/668 735/605/671 733/603/669
f 735/605/671 736/606/672 734/604/670
f 737/607/673 727/598/663 730/600/666
f 732/602/668 727/598/663 737/607/673
f 730/600/666 738/608/674 737/607/673
f 735/605/671 732/602/668 739/609/675
f 737/607/673 739/609/675 732/602/668
f 740/610/676 737/607/673 738/608/674
f 739/609/675 737/607/673 740/610/676
f 741/611/677 740/610/676 738/608/674
f 742/612/678 739/609/675 740/610/676
f 742/612/678 740/610/676 741/611/677
f 743/613/679 735/605/671 739/609/675
f 743/613/679 739/609/675 742/612/678
f 736/606/672 735/605/671 744/614/680
f 735/605/671 743/613/679 744/614/680
f 744/614/680 745/615/643 736/606/672
f 741/611/677 746/616/681 742/612/678
f 746/616/681 741/611/677 747/617/682
f 742/612/678 748/618/683 743/613/679
f 748/618/683 742/612/678 746/616/681
f 743/613/679 749/619/684 744/614/680
f 749/619/684 743/613/679 748/618/683
f 745/615/643 744/614/680 749/619/684
f 747/617/682 750/620/685 746/616/681
f 750/620/685 748/618/683 746/616/681
f 750/620/685 747/617/682 751/621/635
f 752/622/686 749/619/684 748/618/683
f 752/622/686 748/618/683 750/620/685
f 749/619/684 753/623/687 745/615/643
f 749/619/684 752/622/686 753/623/687
f 754/624/630 745/615/643 753/623/687
f 755/625/688 750/620/685 751/621/635
f 755/625/688 752/622/686 750/620/685
f 755/625/688 751/621/635 756/626/624
f 757/627/689 755/625/688 756/626/624
f 758/628/690 754/624/630 753/623/687
f 758/628/690 753/623/687 752/622/686
f 754/624/630 758/628/690 759/629/691
f 758/628/690 760/630/692 759/629/691
f 752/622/686 755/625/688 761/631/693
f 752/622/686 761/631/693 758/628/690
f 755/625/688 757/627/689 762/632/694
f 762/632/694 761/631/693 755/625/688
f 757/627/689 763/633/695 762/632/694
f 763/633/695 757/627/689 764/634/696
f 765/635/697 763/633/695 764/634/696
f 761/631/693 762/632/694 766/636/698
f 766/636/698 758/628/690 761/631/693
f 762/632/694 763/633/695 767/637/699
f 767/637/699 766/636/698 762/632/694
f 763/633/695 765/635/697 768/638/610
f 768/638/610 767/637/699 763/633/695
f 765/635/697 769/639/700 768/638/610
f 769/639/700 767/637/699 768/638/610
f 769/639/700 765/635/697 770/640/701
f 760/630/692 769/639/700 770/640/701
f 771/641/702 767/637/699 769/639/700
f 769/639/700 760/630/692 771/641/702
f 767/637/699 771/641/702 766/636/698
f 758/628/690 771/641/702 760/630/692
f 758/628/690 766/636/698 771/641/702
